<svg class="animated" id="freepik_stories-astronaut-suit" xmlns="http://www.w3.org/2000/svg" viewBox="0 0 500 500" version="1.1" xmlns:xlink="http://www.w3.org/1999/xlink" xmlns:svgjs="http://svgjs.com/svgjs"><style>svg#freepik_stories-astronaut-suit:not(.animated) .animable {opacity: 0;}svg#freepik_stories-astronaut-suit.animated #freepik--character-2--inject-358 {animation: 3s Infinite  linear floating;animation-delay: 0s;}svg#freepik_stories-astronaut-suit.animated #freepik--character-1--inject-358 {animation: 3s Infinite  linear floating;animation-delay: -1.5s;}            @keyframes floating {                0% {                    opacity: 1;                    transform: translateY(0px);                }                50% {                    transform: translateY(-10px);                }                100% {                    opacity: 1;                    transform: translateY(0px);                }            }        </style><g id="freepik--background-simple--inject-358" class="animable" style="transform-origin: 245.137px 222.197px;"><path d="M280.89,180.84c25.63,9,56.45-28.33,113.38-13.53,55.22,14.34,77.19,78,56.31,125.63-25.55,58.25-103,106.29-153.7,90.57-53.07-16.44-66.06-72-93.79-90.63C174.32,273.59,115,301.57,62,256.75c-41.57-35.11-42.5-89,12.62-152.75,35.1-40.57,88.07-67.1,147.75-24.24C267.07,111.87,252.41,170.83,280.89,180.84Z" style="fill: rgb(32, 27, 44); transform-origin: 245.137px 222.197px;" id="eljvuy7bcb06" class="animable"></path><g id="el516jy27qxf"><path d="M280.89,180.84c25.63,9,56.45-28.33,113.38-13.53,55.22,14.34,77.19,78,56.31,125.63-25.55,58.25-103,106.29-153.7,90.57-53.07-16.44-66.06-72-93.79-90.63C174.32,273.59,115,301.57,62,256.75c-41.57-35.11-42.5-89,12.62-152.75,35.1-40.57,88.07-67.1,147.75-24.24C267.07,111.87,252.41,170.83,280.89,180.84Z" style="fill: rgb(255, 255, 255); opacity: 0.9; transform-origin: 245.137px 222.197px;" class="animable"></path></g></g><g id="freepik--Shadow--inject-358" class="animable" style="transform-origin: 245.18px 412.39px;"><ellipse id="freepik--path--inject-358" cx="245.18" cy="412.39" rx="193.89" ry="11.32" style="fill: rgb(245, 245, 245); transform-origin: 245.18px 412.39px;" class="animable"></ellipse></g><g id="freepik--Window--inject-358" class="animable animator-active" style="transform-origin: 250.006px 204.995px;"><path d="M392.63,195.86,329.46,86.44a18.28,18.28,0,0,0-15.8-9.12H187.32a18.3,18.3,0,0,0-15.81,9.12L108.34,195.86a18.28,18.28,0,0,0,0,18.24l63.17,109.42a18.3,18.3,0,0,0,15.81,9.12H313.66a18.28,18.28,0,0,0,15.8-9.12L392.63,214.1A18.28,18.28,0,0,0,392.63,195.86Z" style="fill: rgb(32, 27, 44); transform-origin: 250.485px 204.98px;" id="elnq1l6o6gklm" class="animable"></path><path d="M392.63,195.86,329.46,86.44a18.28,18.28,0,0,0-15.8-9.12H187.32a18.3,18.3,0,0,0-15.81,9.12L108.34,195.86a18.28,18.28,0,0,0,0,18.24l63.17,109.42a18.3,18.3,0,0,0,15.81,9.12H313.66a18.28,18.28,0,0,0,15.8-9.12L392.63,214.1A18.28,18.28,0,0,0,392.63,195.86Z" style="fill: rgb(38, 50, 56); transform-origin: 250.485px 204.98px;" id="ellcagaibulvs" class="animable"></path><path d="M399.86,195.36,333.26,80a19.27,19.27,0,0,0-16.66-9.62H183.4A19.27,19.27,0,0,0,166.74,80l-66.6,115.35a19.27,19.27,0,0,0,0,19.24L166.74,330a19.28,19.28,0,0,0,16.66,9.61H316.6A19.28,19.28,0,0,0,333.26,330l66.6-115.36A19.27,19.27,0,0,0,399.86,195.36Zm-132.11-37h-35.5a5.93,5.93,0,0,1-5.12-3L190.4,91.76a5.91,5.91,0,0,1,5.12-8.87h109a5.91,5.91,0,0,1,5.12,8.87l-36.73,63.62A5.93,5.93,0,0,1,267.75,158.33ZM290.62,202a15.67,15.67,0,0,0,2.21,2.95,15.42,15.42,0,0,0-2.21,3l-17.75,30.74a15.53,15.53,0,0,0-1.45,3.39,16,16,0,0,0-3.67-.44h-35.5a16,16,0,0,0-3.67.44,15.53,15.53,0,0,0-1.45-3.39l-17.75-30.74a15.42,15.42,0,0,0-2.21-3,15.67,15.67,0,0,0,2.21-2.95l17.75-30.75a15.53,15.53,0,0,0,1.45-3.39,16,16,0,0,0,3.67.44h35.5a16,16,0,0,0,3.67-.44,15.53,15.53,0,0,0,1.45,3.39Zm-72.14-41.66a5.94,5.94,0,0,1,0,5.91L200.73,197a6,6,0,0,1-5.12,2.95H122.14a5.9,5.9,0,0,1-5.11-8.86l54.48-94.37a5.91,5.91,0,0,1,10.23,0ZM117,212.93a5.81,5.81,0,0,1,5.12-3h73.47a6,6,0,0,1,5.12,3l17.75,30.75a5.94,5.94,0,0,1,0,5.91l-36.74,63.62a5.91,5.91,0,0,1-10.23,0L117,218.84A5.82,5.82,0,0,1,117,212.93ZM190.4,318.21l36.73-63.63a5.93,5.93,0,0,1,5.12-3h35.5a5.93,5.93,0,0,1,5.12,3l36.73,63.63a5.91,5.91,0,0,1-5.12,8.86h-109a5.91,5.91,0,0,1-5.12-8.86Zm91.12-68.62a5.94,5.94,0,0,1,0-5.91l17.75-30.75a6,6,0,0,1,5.12-3h73.47a5.91,5.91,0,0,1,5.12,8.86l-54.49,94.37a5.91,5.91,0,0,1-10.23,0ZM383,197a5.81,5.81,0,0,1-5.12,2.95H304.39a6,6,0,0,1-5.12-2.95l-17.75-30.75a5.94,5.94,0,0,1,0-5.91l36.74-63.62a5.91,5.91,0,0,1,10.23,0L383,191.12A5.81,5.81,0,0,1,383,197Z" style="fill: rgb(32, 27, 44); transform-origin: 250.006px 204.995px;" id="elfft7pttxyl6" class="animable"></path><g id="el3ql0asxco72"><circle cx="244.57" cy="109.08" r="13.11" style="fill: rgb(32, 27, 44); transform-origin: 244.57px 109.08px; transform: rotate(-70deg);" class="animable"></circle></g><g id="ellqgbipzd33"><circle cx="244.57" cy="109.08" r="13.11" style="fill: rgb(255, 255, 255); opacity: 0.9; transform-origin: 244.57px 109.08px; transform: rotate(-70deg);" class="animable"></circle></g><path d="M263.65,96.46a5.84,5.84,0,0,1-5.74-1.29c-5.05-5.18-13.61-6.65-21.27-3.08s-12,11.08-11.31,18.27a5.8,5.8,0,0,1-2.7,5.22c-6,4.1-9.38,7.58-8.57,9.32,1.5,3.21,16.64-.68,33.83-8.7s29.9-17.11,28.41-20.32C275.48,94.14,270.65,94.49,263.65,96.46Zm-17.4,16.23c-13.47,6.28-24.78,10.53-25.86,8.23-.56-1.2,1.89-3.65,6.25-6.62a5.82,5.82,0,0,0,2.78-4.81c-.17-5.2,3.19-10.9,9-13.61s12.34-1.61,16.21,1.87a5.85,5.85,0,0,0,5.47,1c5.07-1.44,8.53-1.74,9.08-.54C270.25,100.48,259.72,106.41,246.25,112.69Z" style="fill: rgb(32, 27, 44); transform-origin: 245.18px 108.078px;" id="el32slo2jhb0t" class="animable"></path><g id="el28kcnxw7kea"><path d="M263.65,96.46a5.84,5.84,0,0,1-5.74-1.29c-5.05-5.18-13.61-6.65-21.27-3.08s-12,11.08-11.31,18.27a5.8,5.8,0,0,1-2.7,5.22c-6,4.1-9.38,7.58-8.57,9.32,1.5,3.21,16.64-.68,33.83-8.7s29.9-17.11,28.41-20.32C275.48,94.14,270.65,94.49,263.65,96.46Zm-17.4,16.23c-13.47,6.28-24.78,10.53-25.86,8.23-.56-1.2,1.89-3.65,6.25-6.62a5.82,5.82,0,0,0,2.78-4.81c-.17-5.2,3.19-10.9,9-13.61s12.34-1.61,16.21,1.87a5.85,5.85,0,0,0,5.47,1c5.07-1.44,8.53-1.74,9.08-.54C270.25,100.48,259.72,106.41,246.25,112.69Z" style="fill: rgb(255, 255, 255); opacity: 0.6; transform-origin: 245.18px 108.078px;" class="animable"></path></g><polygon points="231.41 304.93 229.27 303.81 229.68 306.19 227.94 307.88 230.34 308.23 231.41 310.4 232.49 308.23 234.88 307.88 233.15 306.19 233.56 303.81 231.41 304.93" style="fill: rgb(245, 245, 245); transform-origin: 231.41px 307.105px;" id="elusav6qbb3d" class="animable"></polygon><polygon points="305.14 263.73 302.99 262.6 303.4 264.99 301.67 266.68 304.06 267.02 305.14 269.2 306.21 267.02 308.61 266.68 306.87 264.99 307.28 262.6 305.14 263.73" style="fill: rgb(245, 245, 245); transform-origin: 305.14px 265.9px;" id="elxhqdwetab8l" class="animable"></polygon><polygon points="140.46 230.35 138.32 229.23 138.73 231.61 137 233.3 139.39 233.65 140.46 235.82 141.54 233.65 143.93 233.3 142.2 231.61 142.61 229.23 140.46 230.35" style="fill: rgb(245, 245, 245); transform-origin: 140.465px 232.525px;" id="el950100qzchk" class="animable"></polygon><polygon points="267.52 219.18 265.38 218.06 265.79 220.44 264.05 222.13 266.45 222.48 267.52 224.66 268.6 222.48 270.99 222.13 269.26 220.44 269.67 218.06 267.52 219.18" style="fill: rgb(245, 245, 245); transform-origin: 267.52px 221.36px;" id="elfq36f1vv7n" class="animable"></polygon><polygon points="183.85 150.31 181.7 149.18 182.11 151.57 180.38 153.26 182.78 153.61 183.85 155.78 184.92 153.61 187.32 153.26 185.58 151.57 185.99 149.18 183.85 150.31" style="fill: rgb(245, 245, 245); transform-origin: 183.85px 152.48px;" id="elgcykyzmxnbj" class="animable"></polygon><polygon points="233.69 193.47 231.55 192.34 231.96 194.73 230.22 196.42 232.62 196.77 233.69 198.94 234.76 196.77 237.16 196.42 235.43 194.73 235.84 192.34 233.69 193.47" style="fill: rgb(245, 245, 245); transform-origin: 233.69px 195.64px;" id="el7j9y626yc8p" class="animable"></polygon><polygon points="365.42 220.99 363.27 219.86 363.68 222.25 361.95 223.94 364.35 224.29 365.42 226.46 366.49 224.29 368.89 223.94 367.15 222.25 367.56 219.86 365.42 220.99" style="fill: rgb(245, 245, 245); transform-origin: 365.42px 223.16px;" id="elym3ezusdtrk" class="animable"></polygon><polygon points="189.79 246.93 186.65 245.28 187.25 248.77 184.71 251.25 188.22 251.76 189.79 254.94 191.36 251.76 194.87 251.25 192.33 248.77 192.93 245.28 189.79 246.93" style="fill: rgb(250, 250, 250); transform-origin: 189.79px 250.11px;" id="elw20228h6yad" class="animable"></polygon><polygon points="238.77 144.63 235.63 142.99 236.23 146.48 233.69 148.95 237.2 149.46 238.77 152.64 240.34 149.46 243.85 148.95 241.31 146.48 241.91 142.99 238.77 144.63" style="fill: rgb(255, 255, 255); transform-origin: 238.77px 147.815px;" id="ell8pcowzvq7" class="animable"></polygon><polygon points="323.71 103.16 320.57 101.51 321.17 105 318.63 107.48 322.14 107.99 323.71 111.17 325.28 107.99 328.79 107.48 326.25 105 326.85 101.51 323.71 103.16" style="fill: rgb(255, 255, 255); transform-origin: 323.71px 106.34px;" id="elvqr4wubbcci" class="animable"></polygon><g id="eloua2cjsvt9"><circle cx="257.73" cy="281.3" r="16.91" style="fill: rgb(32, 27, 44); transform-origin: 257.73px 281.3px; transform: rotate(-22.5deg);" class="animable"></circle></g><g id="elyd3lflbmmtk"><path d="M273,274.12c-1.48,1.7-3.9,2.67-5.88,4.31-2.45,2-1.27,5-5.92,7.95s-7,1.19-9.65,2.37c-1.82.82-5.27,2.18-7.21,2.93a17,17,0,0,0,7.05,5.31c2.71-.93,7.34-1.87,6.93-2.57-.59-1-4.48.68-5.16-.42s1.78-1.27,7.45-1.78,8.54-6,10.49-8.63a8,8,0,0,1,3.49-2.69A16.91,16.91,0,0,0,273,274.12Z" style="fill: rgb(245, 245, 245); opacity: 0.3; transform-origin: 259.465px 285.555px;" class="animable"></path></g><g id="eliqicp95oat"><path d="M267.35,267.4c-5.24,4.19-7.27.9-11.36,3.93s-.25,5.49-6.76,8.79c-4.54,2.3-7.14,2.87-8.31,3a16.67,16.67,0,0,0,1.14,4.52,18.12,18.12,0,0,0,6.4-2c4.91-2.37,4.75.17,9.27-1.94s3.25-6.43,7-8.89a59.07,59.07,0,0,0,6.08-4.23A16.66,16.66,0,0,0,267.35,267.4Zm-8.77,10.93c-1,1.17-2.42,1.62-3.11,1s-.41-2.05.62-3.22,2.43-1.62,3.11-1S259.61,277.17,258.58,278.33Z" style="fill: rgb(245, 245, 245); opacity: 0.7; transform-origin: 255.865px 277.52px;" class="animable"></path></g><g id="elusuv6j6sak"><path d="M250.53,274.14c.48.41.29,1.4-.42,2.21s-1.67,1.11-2.14.69-.28-1.4.43-2.21S250.06,273.72,250.53,274.14Z" style="fill: rgb(245, 245, 245); opacity: 0.3; transform-origin: 249.254px 275.59px;" class="animable"></path></g><g id="elmv0gf27fpwo"><path d="M264.16,293.26c.27.57-.29,1.4-1.26,1.86s-2,.37-2.24-.2.3-1.41,1.26-1.86S263.9,292.69,264.16,293.26Z" style="fill: rgb(245, 245, 245); opacity: 0.7; transform-origin: 262.416px 294.092px;" class="animable"></path></g></g><g id="freepik--character-2--inject-358" class="animable" style="transform-origin: 343.215px 220.042px;"><path d="M375.05,164.08a5.62,5.62,0,0,0,2.81-7.44l-23.11-51.16a5.63,5.63,0,0,0-7.44-2.81l-46.8,21.15a5.62,5.62,0,0,0-2.81,7.44l23.11,51.15a5.62,5.62,0,0,0,7.44,2.81l0,0a5.62,5.62,0,0,0-2.81,7.44l7.08,15.67a5.62,5.62,0,0,0,7.44,2.81L386.78,190a5.61,5.61,0,0,0,2.81-7.43l-7.08-15.67a5.62,5.62,0,0,0-7.44-2.81Z" style="fill: rgb(38, 50, 56); transform-origin: 343.645px 156.907px;" id="elj8i38lv7a4d" class="animable"></path><g id="ell4labpb8ub"><path d="M375.05,164.08a5.62,5.62,0,0,0,2.81-7.44l-23.11-51.16a5.63,5.63,0,0,0-7.44-2.81l-46.8,21.15a5.62,5.62,0,0,0-2.81,7.44l23.11,51.15a5.62,5.62,0,0,0,7.44,2.81l0,0a5.62,5.62,0,0,0-2.81,7.44l7.08,15.67a5.62,5.62,0,0,0,7.44,2.81L386.78,190a5.61,5.61,0,0,0,2.81-7.43l-7.08-15.67a5.62,5.62,0,0,0-7.44-2.81Z" style="fill: rgb(255, 255, 255); opacity: 0.3; transform-origin: 343.645px 156.907px;" class="animable"></path></g><path d="M375.05,164.08a5.62,5.62,0,0,0,2.81-7.44l-23.11-51.16a5.63,5.63,0,0,0-7.44-2.81L331,110a5.61,5.61,0,0,0-2.81,7.43l23.11,51.16a5.62,5.62,0,0,0,7.44,2.81l0,0a5.62,5.62,0,0,0-2.81,7.44l7.08,15.67a5.63,5.63,0,0,0,7.44,2.81L386.78,190a5.61,5.61,0,0,0,2.81-7.43l-7.08-15.67a5.62,5.62,0,0,0-7.44-2.81Z" style="fill: rgb(38, 50, 56); transform-origin: 358.89px 149.995px;" id="eljhqbuu6k0ro" class="animable"></path><g id="el95whp8hw13o"><path d="M375.05,164.08a5.62,5.62,0,0,0,2.81-7.44l-23.11-51.16a5.63,5.63,0,0,0-7.44-2.81L331,110a5.61,5.61,0,0,0-2.81,7.43l23.11,51.16a5.62,5.62,0,0,0,7.44,2.81l0,0a5.62,5.62,0,0,0-2.81,7.44l7.08,15.67a5.63,5.63,0,0,0,7.44,2.81L386.78,190a5.61,5.61,0,0,0,2.81-7.43l-7.08-15.67a5.62,5.62,0,0,0-7.44-2.81Z" style="fill: rgb(255, 255, 255); opacity: 0.6; transform-origin: 358.89px 149.995px;" class="animable"></path></g><g id="elgsdjzchmd9"><rect x="361.9" y="172.29" width="18.49" height="8.22" style="fill: rgb(38, 50, 56); transform-origin: 371.145px 176.4px; transform: rotate(-24.31deg);" class="animable"></rect></g><path d="M370.87,189.62a1.89,1.89,0,1,1-2.5-1A1.89,1.89,0,0,1,370.87,189.62Z" style="fill: rgb(32, 27, 44); transform-origin: 369.127px 190.352px;" id="el5z4ivl1o52f" class="animable"></path><path d="M377.52,186.62a1.9,1.9,0,1,1-2.51-1A1.9,1.9,0,0,1,377.52,186.62Z" style="fill: rgb(32, 27, 44); transform-origin: 375.77px 187.361px;" id="elmxz7cqqkkv9" class="animable"></path><path d="M280.25,106.71,274,110.06c-1.09.58-1.33,2.24-.55,3.71s2.31,2.18,3.4,1.59L283.1,112c1.09-.58,1.33-2.25.55-3.71S281.34,106.13,280.25,106.71Z" style="fill: rgb(38, 50, 56); transform-origin: 278.55px 111.037px;" id="el6flmnzk5cb6" class="animable"></path><path d="M277.42,111.65c.79,1.47.54,3.13-.54,3.71s-2.61-.13-3.4-1.59-.54-3.13.55-3.71S276.63,110.19,277.42,111.65Z" style="fill: rgb(32, 27, 44); transform-origin: 275.45px 112.71px;" id="el4ztbrwxmfvq" class="animable"></path><g id="elm92k26so3pk"><path d="M277.42,111.65c.79,1.47.54,3.13-.54,3.71s-2.61-.13-3.4-1.59-.54-3.13.55-3.71S276.63,110.19,277.42,111.65Z" style="fill: rgb(255, 255, 255); opacity: 0.4; transform-origin: 275.45px 112.71px;" class="animable"></path></g><path d="M277.3,111.72c.63,1.17.44,2.5-.43,3s-2.09-.1-2.72-1.27a2.17,2.17,0,0,1,.44-3C275.46,110,276.67,110.55,277.3,111.72Z" style="fill: rgb(32, 27, 44); transform-origin: 275.704px 112.595px;" id="el6u8nuhwlqya" class="animable"></path><g id="el01azn7dljh3s"><path d="M275.62,111.24a.66.66,0,0,1-.13.88.63.63,0,0,1-.8-.38.63.63,0,0,1,.13-.87C275.07,110.73,275.43,110.9,275.62,111.24Z" style="fill: rgb(255, 255, 255); opacity: 0.5; transform-origin: 275.152px 111.488px;" class="animable"></path></g><g id="el21seiano8vr"><path d="M276.6,113.08a.65.65,0,0,1-.12.88.74.74,0,1,1,.12-.88Z" style="opacity: 0.2; transform-origin: 275.967px 113.44px;" class="animable"></path></g><path d="M293.91,140.73l23.24-12.48a7.69,7.69,0,0,1,.11-3.34A20.16,20.16,0,1,0,291.1,139,7.62,7.62,0,0,1,293.91,140.73Z" style="fill: rgb(32, 27, 44); transform-origin: 297.718px 120.264px;" id="elxxq311pxmds" class="animable"></path><path d="M303.24,122.82c2.63,3.91,5.88,8.35,10,9.22a10.15,10.15,0,0,1-5.09,9.79c-4.33,2.53-5.42-1.42-5.62-3.7.84-3.11-1.25-5-2.56-6.48Z" style="fill: rgb(255, 139, 123); transform-origin: 306.628px 132.733px;" id="el2y3dv49wse5" class="animable"></path><g id="el8fde0r9ecs7"><path d="M303,125.51c-.16-.25-.34-.5-.51-.74L300,131.65a11.41,11.41,0,0,1,2.4,3.27C303.93,132.12,304.56,127.91,303,125.51Z" style="opacity: 0.2; transform-origin: 301.952px 129.845px;" class="animable"></path></g><path d="M301.79,115.91c2,5.92,3.53,9.27,1.86,13.46-2.52,6.3-10.7,6.67-14.45,1.5-3.38-4.66-6.15-13.55-1.48-18.23A8.46,8.46,0,0,1,301.79,115.91Z" style="fill: rgb(255, 139, 123); transform-origin: 294.804px 122.278px;" id="eln9b7mom7xo" class="animable"></path><path d="M306.16,120.93a6,6,0,0,1-2.15,4c-1.62,1.32-3.24.07-3.47-1.9-.21-1.77.39-4.58,2.34-5.13A2.65,2.65,0,0,1,306.16,120.93Z" style="fill: rgb(255, 139, 123); transform-origin: 303.351px 121.644px;" id="elb7vtxkkam08" class="animable"></path><path d="M293.52,121.57c.2.47.11,1-.2,1.09s-.71-.15-.9-.62-.11-1,.2-1.08S293.33,121.1,293.52,121.57Z" style="fill: rgb(38, 50, 56); transform-origin: 292.972px 121.811px;" id="elzaf5f86fcl" class="animable"></path><path d="M287.77,124.22c.2.47.11,1-.2,1.09s-.71-.15-.9-.62-.11-1,.2-1.08S287.58,123.76,287.77,124.22Z" style="fill: rgb(38, 50, 56); transform-origin: 287.222px 124.461px;" id="elh2m55rb2u7k" class="animable"></path><path d="M289.69,124a18.52,18.52,0,0,1-.86,4.92,2.89,2.89,0,0,0,2.43-.37Z" style="fill: rgb(255, 86, 82); transform-origin: 290.045px 126.52px;" id="el4uco6jj8fr" class="animable"></path><path d="M293.29,118.47a.22.22,0,0,0,.08-.13.29.29,0,0,0-.18-.38,2.91,2.91,0,0,0-2.69.34.3.3,0,0,0-.05.42.29.29,0,0,0,.41,0h0a2.35,2.35,0,0,1,2.14-.24A.28.28,0,0,0,293.29,118.47Z" style="fill: rgb(38, 50, 56); transform-origin: 291.888px 118.29px;" id="elvt41dydreui" class="animable"></path><path d="M284.79,122.45a.29.29,0,0,0,.21-.19,2.38,2.38,0,0,1,1.53-1.52.3.3,0,0,0,.22-.36.3.3,0,0,0-.35-.23,3,3,0,0,0-2,1.91.31.31,0,0,0,.18.38A.33.33,0,0,0,284.79,122.45Z" style="fill: rgb(38, 50, 56); transform-origin: 285.572px 121.304px;" id="elte321nx9on" class="animable"></path><path d="M291.41,129.58a25.61,25.61,0,0,1,4.34-2.36,3.09,3.09,0,0,1-2,3.17A1.61,1.61,0,0,1,291.41,129.58Z" style="fill: rgb(38, 50, 56); transform-origin: 293.586px 128.921px;" id="elvyjgxvnatc" class="animable"></path><path d="M294.16,129.21a3.48,3.48,0,0,0-1.63,1.35,1.83,1.83,0,0,0,1.18-.18,3.4,3.4,0,0,0,1.62-1.35A1.8,1.8,0,0,0,294.16,129.21Z" style="fill: rgb(255, 86, 82); transform-origin: 293.93px 129.795px;" id="el6el8onjlomu" class="animable"></path><path d="M291.55,129.48a.68.68,0,0,0,.72.27,17.81,17.81,0,0,0,2.8-1.61,1.07,1.07,0,0,0,.53-.85A28.4,28.4,0,0,0,291.55,129.48Z" style="fill: rgb(255, 255, 255); transform-origin: 293.575px 128.53px;" id="el1poib9fww54h" class="animable"></path><path d="M283.4,116.64a1.37,1.37,0,0,0,2.18,1c2.46-1.79,7.2-4.69,9.2-2.15,2.77,3.51,3.69,13.24,9.49,10.3,2.67-1.35,2.8-4.76,1.83-8.63-1.14-4.55-4.09-9.56-10.42-9.93S283.34,112.23,283.4,116.64Z" style="fill: rgb(38, 50, 56); transform-origin: 295.026px 116.774px;" id="elh0kfh5m1rft" class="animable"></path><path d="M301.15,133.42s3-1.86,5-7.3c0,0,4.14,5.22,7.44,5.2,0,0,1.34,9-6,11.48s-5.54-5.07-5.54-5.07A4.41,4.41,0,0,0,301.15,133.42Z" style="fill: rgb(38, 50, 56); transform-origin: 307.418px 134.71px;" id="elciso6cnnek" class="animable"></path><g id="elcaqpv1dd5d8"><path d="M301.15,133.42s3-1.86,5-7.3c0,0,4.14,5.22,7.44,5.2,0,0,1.34,9-6,11.48s-5.54-5.07-5.54-5.07A4.41,4.41,0,0,0,301.15,133.42Z" style="fill: rgb(255, 255, 255); opacity: 0.5; transform-origin: 307.418px 134.71px;" class="animable"></path></g><path d="M301.45,134c2.56-1.63,4.2-4.83,5.26-7.55.31-.79-.87-1.4-1.18-.6-1,2.52-2.42,5.52-4.8,7a.66.66,0,0,0,.72,1.11Z" style="fill: rgb(32, 27, 44); transform-origin: 303.596px 129.77px;" id="el21f8q4p5mvc" class="animable"></path><g id="elnako5xmvs4i"><g style="opacity: 0.3; transform-origin: 303.596px 129.77px;" class="animable"><path d="M301.45,134c2.56-1.63,4.2-4.83,5.26-7.55.31-.79-.87-1.4-1.18-.6-1,2.52-2.42,5.52-4.8,7a.66.66,0,0,0,.72,1.11Z" style="fill: rgb(255, 255, 255); transform-origin: 303.596px 129.77px;" id="el1rgvaz34nfz" class="animable"></path></g></g><g id="el3q4osvidb4g"><path d="M283.4,116.64a1.37,1.37,0,0,0,2.18,1c2.46-1.79,7.2-4.69,9.2-2.15,2.77,3.51,3.69,13.24,9.49,10.3,2.67-1.35,2.8-4.76,1.83-8.63-1.14-4.55-4.09-9.56-10.42-9.93S283.34,112.23,283.4,116.64Z" style="fill: rgb(255, 255, 255); opacity: 0.5; transform-origin: 295.026px 116.774px;" class="animable"></path></g><path d="M305.47,116.79c1,2.55.75,3.86-1.45,4.76s-3.32.19-4.37-2.36-.75-3.86,1.44-4.76S304.41,114.24,305.47,116.79Z" style="fill: rgb(38, 50, 56); transform-origin: 302.549px 117.99px;" id="elzxmcayfjhpq" class="animable"></path><path d="M287.46,102.62a20,20,0,0,0-5.85,5.25l.57-.32c9.81-5.27,21-3.5,25,3.94s-.71,17.75-10.51,23a25.29,25.29,0,0,1-9.08,2.89A20.2,20.2,0,0,0,291.1,139a7.62,7.62,0,0,1,2.81,1.73l23.24-12.48a7.69,7.69,0,0,1,.11-3.34,20.16,20.16,0,0,0-29.8-22.29Z" style="fill: rgb(32, 27, 44); transform-origin: 299.741px 120.274px;" id="el09evxrzsnx2" class="animable"></path><g id="el9fdyfux14hn"><path d="M287.46,102.62a20,20,0,0,0-5.85,5.25l.57-.32c9.81-5.27,21-3.5,25,3.94s-.71,17.75-10.51,23a25.29,25.29,0,0,1-9.08,2.89A20.2,20.2,0,0,0,291.1,139a7.62,7.62,0,0,1,2.81,1.73l23.24-12.48a7.69,7.69,0,0,1,.11-3.34,20.16,20.16,0,0,0-29.8-22.29Z" style="fill: rgb(255, 255, 255); opacity: 0.7; transform-origin: 299.741px 120.274px;" class="animable"></path></g><path d="M282.42,106.85a20.9,20.9,0,0,0-1.8,2.48c.61-.4,1.25-.78,1.91-1.13,9.51-5.11,20.34-3.52,24.14,3.56s-.84,17-10.35,22.1a24.68,24.68,0,0,1-9.71,2.92c.58.38,1.17.73,1.78,1.05a26.18,26.18,0,0,0,8.52-2.87c10.14-5.45,15-16.1,10.86-23.79S292.44,101.72,282.42,106.85Z" style="fill: rgb(32, 27, 44); transform-origin: 294.934px 120.882px;" id="elk082bxww87" class="animable"></path><g id="elfpg69dqry9"><path d="M282.42,106.85a20.9,20.9,0,0,0-1.8,2.48c.61-.4,1.25-.78,1.91-1.13,9.51-5.11,20.34-3.52,24.14,3.56s-.84,17-10.35,22.1a24.68,24.68,0,0,1-9.71,2.92c.58.38,1.17.73,1.78,1.05a26.18,26.18,0,0,0,8.52-2.87c10.14-5.45,15-16.1,10.86-23.79S292.44,101.72,282.42,106.85Z" style="opacity: 0.4; transform-origin: 294.934px 120.882px;" class="animable"></path></g><g id="elnwcig85ifhq"><path d="M285.48,112.6a13.93,13.93,0,0,1,2.41-3.12,20.7,20.7,0,0,0-5,1.59,17.49,17.49,0,0,0-1.66,3.85A30.84,30.84,0,0,1,285.48,112.6Z" style="fill: rgb(255, 255, 255); opacity: 0.6; transform-origin: 284.56px 112.2px;" class="animable"></path></g><g id="el36bjvaj353t"><path d="M284.62,114.4a30.25,30.25,0,0,0-3.82,2.33,17,17,0,0,0,8,17.61,22.11,22.11,0,0,0,4.22-1.71l.08,0-.18-.08a13.77,13.77,0,0,1-8.29-18.1Z" style="fill: rgb(255, 255, 255); opacity: 0.6; transform-origin: 286.815px 124.37px;" class="animable"></path></g><g id="elq748l3hfu5d"><path d="M304.1,101.09h0a.51.51,0,0,1,.51.51V109a0,0,0,0,1,0,0h-1a0,0,0,0,1,0,0v-7.37A.51.51,0,0,1,304.1,101.09Z" style="fill: rgb(38, 50, 56); transform-origin: 304.11px 105.045px; transform: rotate(-28.24deg);" class="animable"></path></g><g id="el6y1itf16llr"><path d="M304.1,101.09h0a.51.51,0,0,1,.51.51V109a0,0,0,0,1,0,0h-1a0,0,0,0,1,0,0v-7.37A.51.51,0,0,1,304.1,101.09Z" style="fill: rgb(255, 255, 255); opacity: 0.4; transform-origin: 304.11px 105.045px; transform: rotate(-28.24deg);" class="animable"></path></g><g id="elhxfjmxeo7qr"><path d="M303.13,88.68h0a.51.51,0,0,1,.51.51v19.49a0,0,0,0,1,0,0h-1a0,0,0,0,1,0,0V89.19A.51.51,0,0,1,303.13,88.68Z" style="fill: rgb(38, 50, 56); transform-origin: 303.14px 98.68px; transform: rotate(-28.25deg);" class="animable"></path></g><g id="elwrugu41dis"><path d="M303.13,88.68h0a.51.51,0,0,1,.51.51v19.49a0,0,0,0,1,0,0h-1a0,0,0,0,1,0,0V89.19A.51.51,0,0,1,303.13,88.68Z" style="fill: rgb(255, 255, 255); opacity: 0.6; transform-origin: 303.14px 98.68px; transform: rotate(-28.25deg);" class="animable"></path></g><polygon points="385.29 200.47 379.19 192.97 373.68 195.52 375.35 205.04 385.29 200.47" style="fill: rgb(38, 50, 56); transform-origin: 379.485px 199.005px;" id="elyl95sboyyyg" class="animable"></polygon><g id="eln149hty99a"><polygon points="380.96 195.15 379.19 192.97 373.68 195.52 374.17 198.3 380.96 195.15" style="opacity: 0.6; transform-origin: 377.32px 195.635px;" class="animable"></polygon></g><path d="M278.17,166.55c3.43-6.76,11.19-27.83,19.13-23.53s-5.32,29-12.16,36.55c-4.72,5.18-17.46,10.8-24.89,13.78a5,5,0,0,1-6.78-3.64l-.43-2.07a5,5,0,0,1,3.16-5.71C262.46,179.63,274.17,174.43,278.17,166.55Z" style="fill: rgb(32, 27, 44); transform-origin: 276.346px 168.082px;" id="elq7k5euvqiv" class="animable"></path><g id="eldhfyfvmghqh"><path d="M278.17,166.55c3.43-6.76,11.19-27.83,19.13-23.53s-5.32,29-12.16,36.55c-4.72,5.18-17.46,10.8-24.89,13.78a5,5,0,0,1-6.78-3.64l-.43-2.07a5,5,0,0,1,3.16-5.71C262.46,179.63,274.17,174.43,278.17,166.55Z" style="fill: rgb(255, 255, 255); opacity: 0.8; transform-origin: 276.346px 168.082px;" class="animable"></path></g><path d="M279.21,165.47c4.32.33,8.76,2.34,11.16,6,1,1.53,3.18-.3,2.19-1.82-2.77-4.26-8.07-6.67-13.05-7.05-1.83-.14-2.13,2.69-.3,2.83Z" style="fill: rgb(32, 27, 44); transform-origin: 285.395px 167.321px;" id="eli7pzrkau8rj" class="animable"></path><path d="M269.63,175.91c-.34-.3.44.46.57.59a22.16,22.16,0,0,1,1.69,2.05,16.64,16.64,0,0,1,3.16,7.48,1.42,1.42,0,0,0,2.81-.44,20.59,20.59,0,0,0-6.59-12c-1.35-1.23-3,1.1-1.64,2.32Z" style="fill: rgb(32, 27, 44); transform-origin: 273.499px 180.236px;" id="elpt86re3dnoe" class="animable"></path><g id="elygkbx5qk6fr"><g style="opacity: 0.3; transform-origin: 285.395px 167.321px;" class="animable"><path d="M279.21,165.47c4.32.33,8.76,2.34,11.16,6,1,1.53,3.18-.3,2.19-1.82-2.77-4.26-8.07-6.67-13.05-7.05-1.83-.14-2.13,2.69-.3,2.83Z" style="fill: rgb(255, 255, 255); transform-origin: 285.395px 167.321px;" id="elunn8qz3z3v" class="animable"></path></g></g><g id="el5bhybsk5wcq"><g style="opacity: 0.3; transform-origin: 273.499px 180.236px;" class="animable"><path d="M269.63,175.91c-.34-.3.44.46.57.59a22.16,22.16,0,0,1,1.69,2.05,16.64,16.64,0,0,1,3.16,7.48,1.42,1.42,0,0,0,2.81-.44,20.59,20.59,0,0,0-6.59-12c-1.35-1.23-3,1.1-1.64,2.32Z" style="fill: rgb(255, 255, 255); transform-origin: 273.499px 180.236px;" id="el1r25ytglq0d" class="animable"></path></g></g><g id="elye2w3yi3nz"><path d="M299.62,150.41l-3.86-5.27-2.16,1s-6,7.45.47,19.76C296.81,160.56,299.05,154.87,299.62,150.41Z" style="opacity: 0.2; transform-origin: 295.344px 155.52px;" class="animable"></path></g><path d="M293.81,141.83c5-5.3,13.62-12.13,25.89-13.59a11,11,0,0,1,10.69,5.38c5.39,9.18,16.05,28.66,23.49,50.93,0,0-21.73,15.8-39.74,18,0,0-10.56-11-12.22-29.92l-9.75-18A11,11,0,0,1,293.81,141.83Z" style="fill: rgb(32, 27, 44); transform-origin: 322.353px 165.362px;" id="elf9tn0apjbg" class="animable"></path><path d="M314.15,199.09a354,354,0,0,0,19.5,61.45c14,33.46,21.67,47.95,21.67,47.95L372,302.28l-23.31-79.89s5.32-15.77-3-34.13Z" style="fill: rgb(32, 27, 44); transform-origin: 343.075px 248.375px;" id="elwp2quqhqcks" class="animable"></path><g id="elbe4dni7tmim"><path d="M314.15,199.09a354,354,0,0,0,19.5,61.45c14,33.46,21.67,47.95,21.67,47.95L372,302.28l-23.31-79.89s5.32-15.77-3-34.13Z" style="fill: rgb(255, 255, 255); opacity: 0.7; transform-origin: 343.075px 248.375px;" class="animable"></path></g><g id="elbkjq2b1n85v"><path d="M349.67,217.89l-7.79-10.49-4.75,3.19s-1.59,18.09,22.24,48.54l-10.72-36.74A32.31,32.31,0,0,0,349.67,217.89Z" style="opacity: 0.2; transform-origin: 348.239px 233.265px;" class="animable"></path></g><path d="M373.19,300.09l11.87,39.85-.67.3-2-.21-1.15,1.61-2-.21L378.18,343l-2-.21-1.14,1.62-2-.21L372,345.85l-2-.21-1.14,1.61-2-.21-1.14,1.62-2-.21-1.14,1.61-.87.39S357,344.63,367.69,338l-14.46-30.61A68.73,68.73,0,0,0,373.19,300.09Z" style="fill: rgb(32, 27, 44); transform-origin: 369.145px 325.27px;" id="elmn04ub8r0k" class="animable"></path><g id="elng8vq42xcm"><path d="M373.19,300.09l11.87,39.85-.67.3-2-.21-1.15,1.61-2-.21L378.18,343l-2-.21-1.14,1.62-2-.21L372,345.85l-2-.21-1.14,1.61-2-.21-1.14,1.62-2-.21-1.14,1.61-.87.39S357,344.63,367.69,338l-14.46-30.61A68.73,68.73,0,0,0,373.19,300.09Z" style="fill: rgb(255, 255, 255); opacity: 0.5; transform-origin: 369.145px 325.27px;" class="animable"></path></g><path d="M381.48,338,368,344.11l-3.43-3.89c-6.53,5.68-2.81,10.23-2.81,10.23l.87-.39,1.14-1.61,2,.21L366.9,347l2,.21,1.14-1.61,2,.21,1.14-1.61,2,.21,1.14-1.62,2,.21,1.14-1.61,2,.21,1.15-1.61,2,.21.67-.3-1.79-6Z" style="fill: rgb(38, 50, 56); transform-origin: 372.992px 342.175px;" id="el5y68wc4v5e7" class="animable"></path><path d="M328.71,196.17S347.32,234.34,365,258.6c8.72,12,15,20.74,19.05,26.58a11.46,11.46,0,0,0,15.38,3.18l6.79-4.16s-31.74-53-36.11-66.66-18.64-35.31-18.64-35.31Z" style="fill: rgb(32, 27, 44); transform-origin: 367.465px 236.143px;" id="eld4mheusv72i" class="animable"></path><g id="elb5dm5ec11jo"><path d="M328.71,196.17S347.32,234.34,365,258.6c9.06,12.43,15.45,21.42,19.51,27.24a10.57,10.57,0,0,0,14.22,3l7.49-4.59s-31.74-53-36.11-66.66-18.64-35.31-18.64-35.31Z" style="fill: rgb(255, 255, 255); opacity: 0.7; transform-origin: 367.465px 236.34px;" class="animable"></path></g><path d="M343,149.46c-6.76-3.43-27.82-11.19-23.52-19.14s29,5.32,36.54,12.16c5.18,4.73,10.8,17.46,13.79,24.89a5,5,0,0,1-3.64,6.79l-2.08.43a5,5,0,0,1-5.71-3.17C356.1,165.16,350.91,153.46,343,149.46Z" style="fill: rgb(32, 27, 44); transform-origin: 344.543px 151.277px;" id="elh9tr0u15ng7" class="animable"></path><g id="elhhe7v1c4s45"><path d="M343,149.46c-6.76-3.43-27.82-11.19-23.52-19.14s29,5.32,36.54,12.16c5.18,4.73,10.8,17.46,13.79,24.89a5,5,0,0,1-3.64,6.79l-2.08.43a5,5,0,0,1-5.71-3.17C356.1,165.16,350.91,153.46,343,149.46Z" style="fill: rgb(255, 255, 255); opacity: 0.8; transform-origin: 344.543px 151.277px;" class="animable"></path></g><path d="M397.4,266.46l42.2-10.8.15.72-.65,1.87,1.32,1.47-.64,1.87,1.32,1.47-.65,1.87,1.32,1.47-.64,1.87,1.32,1.47-.64,1.87,1.32,1.47-.65,1.87,1.32,1.47-.64,1.87,1.32,1.47.19.93s-6.37,5.22-10.49-6.68l-29.95,12.67S402.16,274.48,397.4,266.46Z" style="fill: rgb(32, 27, 44); transform-origin: 421.035px 271.17px;" id="els7mrqmwtv4p" class="animable"></path><g id="el6tua98df5fj"><path d="M397.4,266.46l42.2-10.8.15.72-.65,1.87,1.32,1.47-.64,1.87,1.32,1.47-.65,1.87,1.32,1.47-.64,1.87,1.32,1.47-.64,1.87,1.32,1.47-.65,1.87,1.32,1.47-.64,1.87,1.32,1.47.19.93s-6.37,5.22-10.49-6.68l-29.95,12.67S402.16,274.48,397.4,266.46Z" style="fill: rgb(255, 255, 255); opacity: 0.5; transform-origin: 421.035px 271.17px;" class="animable"></path></g><path d="M439.75,256.38l-.15-.72-6.79,1.73,4.66,2.76,2.78,13.71-4.44,3.84c4,7,8.86,3,8.86,3l-.19-.93-1.32-1.47.64-1.87L442.48,275l.65-1.87-1.32-1.47.64-1.87-1.32-1.47.64-1.87-1.32-1.47.65-1.87-1.32-1.47.64-1.87-1.32-1.47Z" style="fill: rgb(38, 50, 56); transform-origin: 438.74px 268.749px;" id="el08yfhj5dsfr3" class="animable"></path><path d="M319.32,128.3c-12.06,1.55-20.58,8.29-25.51,13.53a9.72,9.72,0,0,0-.66.78c-1.4,4.53-.72,10,.39,14.56l8.38,15.42c1.66,18.95,12.22,29.92,12.22,29.92,18-2.16,39.74-18,39.74-18A262.9,262.9,0,0,0,339.29,150C313.15,140.47,316.17,132,319.32,128.3Z" style="fill: rgb(32, 27, 44); transform-origin: 323.121px 165.405px;" id="el5lad8usyt8" class="animable"></path><g id="el66jxq2fi97q"><path d="M319.32,128.3c-12.06,1.55-20.58,8.29-25.51,13.53a9.72,9.72,0,0,0-.66.78c-1.4,4.53-.72,10,.39,14.56l8.38,15.42c1.66,18.95,12.22,29.92,12.22,29.92,18-2.16,39.74-18,39.74-18A262.9,262.9,0,0,0,339.29,150C313.15,140.47,316.17,132,319.32,128.3Z" style="fill: rgb(255, 255, 255); opacity: 0.7; transform-origin: 323.121px 165.405px;" class="animable"></path></g><path d="M318.83,155.13a3.38,3.38,0,0,0-2.78-6.16l-.95.44a3.37,3.37,0,1,0,2.78,6.15Z" style="fill: rgb(38, 50, 56); transform-origin: 316.933px 152.281px;" id="elsjxqbj46sa" class="animable"></path><g id="el4ycjg6w7vf"><path d="M319.56,151.09a3.37,3.37,0,1,1-4.46-1.68A3.38,3.38,0,0,1,319.56,151.09Z" style="fill: rgb(255, 255, 255); opacity: 0.5; transform-origin: 316.49px 152.482px;" class="animable"></path></g><path d="M317.94,151.83a1.59,1.59,0,1,1-2.11-.8A1.59,1.59,0,0,1,317.94,151.83Z" style="fill: rgb(32, 27, 44); transform-origin: 316.488px 152.478px;" id="elec177lzesxe" class="animable"></path><g id="ele7gw21w0i4f"><path d="M315.68,142.5a3.37,3.37,0,1,1-4.47-1.69A3.36,3.36,0,0,1,315.68,142.5Z" style="fill: rgb(255, 255, 255); opacity: 0.5; transform-origin: 312.605px 143.876px;" class="animable"></path></g><path d="M315,146.53a3.37,3.37,0,1,0-2.78-6.15l-1,.43A3.37,3.37,0,0,0,314,147Z" style="fill: rgb(38, 50, 56); transform-origin: 313.102px 143.688px;" id="el7sg6zgeq7b8" class="animable"></path><path d="M314.83,142.88a2.45,2.45,0,1,1-3.24-1.22A2.45,2.45,0,0,1,314.83,142.88Z" style="fill: rgb(32, 27, 44); transform-origin: 312.599px 143.893px;" id="el1aacj45mf2i" class="animable"></path><path d="M364,164.42l1.51,3.35s-4.33.68-7,2.95a.43.43,0,0,1-.68-.16l-.91-2.42a.73.73,0,0,1,.19-.79C358.06,166.49,360.82,164.28,364,164.42Z" style="fill: rgb(32, 27, 44); transform-origin: 361.192px 167.62px;" id="elcponaedzvl" class="animable"></path><path d="M293,141.76l-.55-1.12a1.21,1.21,0,0,1,.64-1.66,157.77,157.77,0,0,0,23.08-12.08,1.22,1.22,0,0,1,1.41.09l.27.22a1.2,1.2,0,0,1,.2,1.67c-2.34,3-10.54,12.28-23.84,13.56A1.24,1.24,0,0,1,293,141.76Z" style="fill: rgb(32, 27, 44); transform-origin: 305.313px 134.581px;" id="elbnu8hr4yi38" class="animable"></path><path d="M352.63,183.61c-11.33,8.2-25.07,15.74-39.05,17.65-1.82.25-1.37,3.06.44,2.81,14.53-2,28.66-9.76,40.43-18.27,1.49-1.07-.33-3.26-1.82-2.19Z" style="fill: rgb(32, 27, 44); transform-origin: 333.712px 193.704px;" id="eleq55stu54h" class="animable"></path><g id="eli8gdwm81po"><g style="opacity: 0.3; transform-origin: 333.712px 193.704px;" class="animable"><path d="M352.63,183.61c-11.33,8.2-25.07,15.74-39.05,17.65-1.82.25-1.37,3.06.44,2.81,14.53-2,28.66-9.76,40.43-18.27,1.49-1.07-.33-3.26-1.82-2.19Z" style="fill: rgb(255, 255, 255); transform-origin: 333.712px 193.704px;" id="el8gs79z2t9z" class="animable"></path></g></g><path d="M341.94,148.42c.34-4.33,2.34-8.76,6-11.16,1.53-1-.3-3.18-1.82-2.19-4.26,2.76-6.66,8.07-7.05,13.05-.14,1.82,2.69,2.12,2.83.3Z" style="fill: rgb(32, 27, 44); transform-origin: 343.791px 142.231px;" id="el4f8xwl3d7lu" class="animable"></path><path d="M352.38,158c-.3.33.46-.44.59-.57a23.69,23.69,0,0,1,2-1.7,16.73,16.73,0,0,1,7.49-3.15,1.42,1.42,0,0,0-.44-2.81,20.63,20.63,0,0,0-12,6.58c-1.23,1.35,1.1,3,2.32,1.65Z" style="fill: rgb(32, 27, 44); transform-origin: 356.667px 154.128px;" id="elrqvpo7coi2" class="animable"></path><path d="M364,164.42l1.51,3.35s-4.33.68-7,2.95a.43.43,0,0,1-.68-.16l-.91-2.42a.73.73,0,0,1,.19-.79C358.06,166.49,360.82,164.28,364,164.42Z" style="fill: rgb(32, 27, 44); transform-origin: 361.192px 167.62px;" id="elppm02s3bo7" class="animable"></path><path d="M341.94,148.42c.34-4.33,2.34-8.76,6-11.16,1.53-1-.3-3.18-1.82-2.19-4.26,2.76-6.66,8.07-7.05,13.05-.14,1.82,2.69,2.12,2.83.3Z" style="fill: rgb(32, 27, 44); transform-origin: 343.791px 142.231px;" id="el0a5pc5kciywg" class="animable"></path><path d="M352.38,158c-.3.33.46-.44.59-.57a23.69,23.69,0,0,1,2-1.7,16.73,16.73,0,0,1,7.49-3.15,1.42,1.42,0,0,0-.44-2.81,20.63,20.63,0,0,0-12,6.58c-1.23,1.35,1.1,3,2.32,1.65Z" style="fill: rgb(32, 27, 44); transform-origin: 356.667px 154.128px;" id="el38qlyvs8xgu" class="animable"></path><g id="eltzyhr7haxgl"><g style="opacity: 0.3; transform-origin: 352.287px 152.822px;" class="animable"><path d="M364,164.42l1.51,3.35s-4.33.68-7,2.95a.43.43,0,0,1-.68-.16l-.91-2.42a.73.73,0,0,1,.19-.79C358.06,166.49,360.82,164.28,364,164.42Z" style="fill: rgb(255, 255, 255); transform-origin: 361.192px 167.62px;" id="el0xbtgxyv6epd" class="animable"></path><path d="M341.94,148.42c.34-4.33,2.34-8.76,6-11.16,1.53-1-.3-3.18-1.82-2.19-4.26,2.76-6.66,8.07-7.05,13.05-.14,1.82,2.69,2.12,2.83.3Z" style="fill: rgb(255, 255, 255); transform-origin: 343.791px 142.231px;" id="elc49rtc91rr" class="animable"></path><path d="M352.38,158c-.3.33.46-.44.59-.57a23.69,23.69,0,0,1,2-1.7,16.73,16.73,0,0,1,7.49-3.15,1.42,1.42,0,0,0-.44-2.81,20.63,20.63,0,0,0-12,6.58c-1.23,1.35,1.1,3,2.32,1.65Z" style="fill: rgb(255, 255, 255); transform-origin: 356.667px 154.128px;" id="el9m9kd23b33t" class="animable"></path></g></g><path d="M329.2,128.42a2.52,2.52,0,0,0-2,1.4c-.6,1.58,1.23,3.73,4.09,4.81s5.65.67,6.25-.91c.33-.89-.12-1.95-1.06-2.91A47.2,47.2,0,0,0,329.2,128.42Z" style="fill: rgb(32, 27, 44); transform-origin: 332.367px 131.827px;" id="el4hq9ey8pn7g" class="animable"></path><path d="M353.4,308.41c7.05-1.15,14-4,20.22-7.35,1.21-.64.34-2.59-.87-1.94-6.13,3.23-12.8,6.06-19.68,7.18a1.07,1.07,0,0,0,.33,2.11Z" style="fill: rgb(32, 27, 44); transform-origin: 363.217px 303.702px;" id="el6bwt8ji3jy3" class="animable"></path><path d="M332.22,258.91a69.81,69.81,0,0,0,24.24-8c1.64-.91.42-3.58-1.24-2.66a67.23,67.23,0,0,1-23.48,7.8c-1.88.24-1.39,3.13.48,2.89Z" style="fill: rgb(32, 27, 44); transform-origin: 343.893px 253.507px;" id="elndcdbye735" class="animable"></path><path d="M342,280.32a65.09,65.09,0,0,0,20.45-8.85c1.55-1,.13-3.44-1.42-2.46a62.7,62.7,0,0,1-19.75,8.56c-1.79.39-1.06,3.14.72,2.75Z" style="fill: rgb(32, 27, 44); transform-origin: 351.684px 274.57px;" id="el4xenup4i228" class="animable"></path><g id="elhr5dgj0fa74"><g style="opacity: 0.3; transform-origin: 352.376px 278.237px;" class="animable"><path d="M353.4,308.41c7.05-1.15,14-4,20.22-7.35,1.21-.64.34-2.59-.87-1.94-6.13,3.23-12.8,6.06-19.68,7.18a1.07,1.07,0,0,0,.33,2.11Z" style="fill: rgb(255, 255, 255); transform-origin: 363.217px 303.702px;" id="el5363mzyqgni" class="animable"></path><path d="M332.22,258.91a69.81,69.81,0,0,0,24.24-8c1.64-.91.42-3.58-1.24-2.66a67.23,67.23,0,0,1-23.48,7.8c-1.88.24-1.39,3.13.48,2.89Z" style="fill: rgb(255, 255, 255); transform-origin: 343.893px 253.507px;" id="el3aiqi6c1u26" class="animable"></path><path d="M342,280.32a65.09,65.09,0,0,0,20.45-8.85c1.55-1,.13-3.44-1.42-2.46a62.7,62.7,0,0,1-19.75,8.56c-1.79.39-1.06,3.14.72,2.75Z" style="fill: rgb(255, 255, 255); transform-origin: 351.684px 274.57px;" id="eleyru0cjtwnv" class="animable"></path></g></g><path d="M357.87,248.57A67.42,67.42,0,0,0,378.63,235c1.32-1.25-.49-3.45-1.82-2.18A65,65,0,0,1,356.7,246c-1.7.69-.53,3.29,1.17,2.59Z" style="fill: rgb(32, 27, 44); transform-origin: 367.479px 240.573px;" id="elrnwjvx1ftyg" class="animable"></path><path d="M370.85,267.14A65.21,65.21,0,0,0,389.53,255c1.36-1.22-.45-3.42-1.82-2.19a62.72,62.72,0,0,1-18,11.75c-1.7.68-.53,3.27,1.17,2.59Z" style="fill: rgb(32, 27, 44); transform-origin: 379.446px 259.855px;" id="elepob72mwayp" class="animable"></path><g id="elm4o0qzimpif"><g style="opacity: 0.3; transform-origin: 372.941px 249.85px;" class="animable"><path d="M357.87,248.57A67.42,67.42,0,0,0,378.63,235c1.32-1.25-.49-3.45-1.82-2.18A65,65,0,0,1,356.7,246c-1.7.69-.53,3.29,1.17,2.59Z" style="fill: rgb(255, 255, 255); transform-origin: 367.479px 240.573px;" id="ely2fawmpixv" class="animable"></path><path d="M370.85,267.14A65.21,65.21,0,0,0,389.53,255c1.36-1.22-.45-3.42-1.82-2.19a62.72,62.72,0,0,1-18,11.75c-1.7.68-.53,3.27,1.17,2.59Z" style="fill: rgb(255, 255, 255); transform-origin: 379.446px 259.855px;" id="elbiczbxv72w" class="animable"></path></g></g><path d="M405.27,286.47a64,64,0,0,0-6.92-20.5c-.68-1.18-2.59-.23-1.91,1a61.87,61.87,0,0,1,6.74,19.95,1.07,1.07,0,0,0,2.09-.42Z" style="fill: rgb(32, 27, 44); transform-origin: 400.786px 276.56px;" id="elwm9ybrgbuzo" class="animable"></path><g id="elhkvs9f4bqfw"><g style="opacity: 0.3; transform-origin: 400.786px 276.56px;" class="animable"><path d="M405.27,286.47a64,64,0,0,0-6.92-20.5c-.68-1.18-2.59-.23-1.91,1a61.87,61.87,0,0,1,6.74,19.95,1.07,1.07,0,0,0,2.09-.42Z" style="fill: rgb(255, 255, 255); transform-origin: 400.786px 276.56px;" id="elndb8m88u3zh" class="animable"></path></g></g><g id="eln79jw48zw5o"><rect x="364.43" y="160.41" width="5.45" height="10.11" rx="1.62" style="fill: rgb(32, 27, 44); transform-origin: 367.155px 165.465px; transform: rotate(-19.31deg);" class="animable"></rect></g><g id="elsbdoa1na26f"><rect x="365.02" y="161.05" width="4.68" height="8.68" rx="1.62" style="fill: rgb(38, 50, 56); transform-origin: 367.36px 165.39px; transform: rotate(-19.31deg);" class="animable"></rect></g><path d="M310.28,180.48a97.59,97.59,0,0,0-4.32,20c-.2,2.46-.58,6.42,1.58,8.23,2.7,2.27,6.21-.81,8.18-2.6,1.35-1.24-.59-3.31-2-2.08-1.6,1.46-4.27,4.25-4.95.92-.62-3,.17-6.59.71-9.55A125.35,125.35,0,0,1,313,181.29a1.42,1.42,0,0,0-2.73-.81Z" style="fill: rgb(32, 27, 44); transform-origin: 310.988px 194.487px;" id="el1nve72zccgd" class="animable"></path><g id="el6rgn9k0or1"><g style="opacity: 0.3; transform-origin: 311.018px 197.11px;" class="animable"><path d="M307.7,189.94a4,4,0,0,0,2.84.63c.36-1.58.75-3.16,1.17-4.72a4.31,4.31,0,0,1-2.78-.73C308.49,186.71,308.07,188.32,307.7,189.94Z" id="eld4gdvq4ee3g" class="animable" style="transform-origin: 309.705px 187.869px;"></path><path d="M306.72,194.77c-.26,1.5-.47,3-.63,4.52a3.69,3.69,0,0,0,2.71.43c.2-1.48.48-2.94.73-4.28l0-.18A6.38,6.38,0,0,1,306.72,194.77Z" id="el6g8kbhozo4" class="animable" style="transform-origin: 307.81px 197.291px;"></path><path d="M307.54,208.75a3.72,3.72,0,0,0,.49.35,9.94,9.94,0,0,0,2.11-2.55c-.6,0-1.09-.39-1.32-1.56,0-.11,0-.23-.06-.35a3.12,3.12,0,0,1-2.91,0A5.76,5.76,0,0,0,307.54,208.75Z" id="elbc4xersq3en" class="animable" style="transform-origin: 307.995px 206.87px;"></path><path d="M315,206.8l.73-.65c1.35-1.24-.59-3.31-2-2.08l-.35.33A4.13,4.13,0,0,1,315,206.8Z" id="eldc5hvpagfb" class="animable" style="transform-origin: 314.783px 205.247px;"></path></g></g><path d="M321.69,162.17l-1-2.29a2.39,2.39,0,0,0-3.17-1.2l-6.31,2.85a2.4,2.4,0,0,0-1.2,3.17l1,2.29-1.2.54a2.39,2.39,0,0,0-1.19,3.17l3.48,7.71a2.89,2.89,0,0,0,3.83,1.44l12.16-5.49a2.89,2.89,0,0,0,1.44-3.83l-3.48-7.71a2.39,2.39,0,0,0-3.17-1.19Z" style="fill: rgb(38, 50, 56); transform-origin: 319.097px 169.288px;" id="eltgc9wkqtk0m" class="animable"></path><path d="M318.44,163.63l-1-2.29a2.41,2.41,0,0,0-3.18-1.19l-6.3,2.84a2.4,2.4,0,0,0-1.2,3.18l1,2.29-1.19.54a2.39,2.39,0,0,0-1.2,3.17l3.48,7.7a2.89,2.89,0,0,0,3.83,1.45l12.16-5.5a2.89,2.89,0,0,0,1.45-3.83l-3.48-7.7a2.4,2.4,0,0,0-3.17-1.2Z" style="fill: rgb(38, 50, 56); transform-origin: 315.852px 170.757px;" id="elpgy86fl4ng" class="animable"></path><g id="eledrrucerot"><path d="M318.44,163.63l-1-2.29a2.41,2.41,0,0,0-3.18-1.19l-6.3,2.84a2.4,2.4,0,0,0-1.2,3.18l1,2.29-1.19.54a2.39,2.39,0,0,0-1.2,3.17l3.48,7.7a2.89,2.89,0,0,0,3.83,1.45l12.16-5.5a2.89,2.89,0,0,0,1.45-3.83l-3.48-7.7a2.4,2.4,0,0,0-3.17-1.2Z" style="fill: rgb(255, 255, 255); opacity: 0.5; transform-origin: 315.852px 170.757px;" class="animable"></path></g><path d="M323.29,174.32,312,179.41a.71.71,0,0,1-.94-.36h0a.71.71,0,0,1,.36-.94L322.71,173a.72.72,0,0,1,.94.35h0A.73.73,0,0,1,323.29,174.32Z" style="fill: rgb(32, 27, 44); transform-origin: 317.357px 176.206px;" id="elg7lylrdpqgn" class="animable"></path><path d="M314.39,172.81a2.28,2.28,0,1,0-1.88-4.15l-.65.29a2.28,2.28,0,1,0,1.88,4.16Z" style="fill: rgb(32, 27, 44); transform-origin: 313.165px 170.865px;" id="elnai0ebey6f" class="animable"></path><g id="el5xf85wfo0bi"><path d="M314.88,170.09a2.28,2.28,0,1,1-3-1.14A2.28,2.28,0,0,1,314.88,170.09Z" style="fill: rgb(255, 255, 255); opacity: 0.5; transform-origin: 312.805px 171.034px;" class="animable"></path></g><path d="M320.25,170.16a2.28,2.28,0,0,0-1.87-4.15l-.65.29a2.28,2.28,0,0,0,1.88,4.16Z" style="fill: rgb(32, 27, 44); transform-origin: 318.929px 168.262px;" id="elhtkie0cbt0m" class="animable"></path><g id="ellccovies9ea"><path d="M320.75,167.44a2.28,2.28,0,1,1-3-1.14A2.28,2.28,0,0,1,320.75,167.44Z" style="fill: rgb(255, 255, 255); opacity: 0.5; transform-origin: 318.675px 168.384px;" class="animable"></path></g><path d="M327.55,175.13a97,97,0,0,0,17.55,10.58c2.26,1,5.89,2.64,8.3,1.18,3-1.82,1.25-6.14.19-8.58a1.42,1.42,0,0,0-2.59,1.17c.86,2,2.63,5.42-.74,5-3-.4-6.18-2.31-8.8-3.77a124.25,124.25,0,0,1-12.27-7.89,1.42,1.42,0,0,0-1.64,2.32Z" style="fill: rgb(32, 27, 44); transform-origin: 341.009px 180.014px;" id="eldyt4h7p6zaw" class="animable"></path><g id="elgmyu8ajqerf"><g style="opacity: 0.3; transform-origin: 342.745px 181.504px;" class="animable"><path d="M335.66,180.64a4,4,0,0,0,1.52-2.48c-1.38-.85-2.75-1.73-4.09-2.64a4.3,4.3,0,0,1-1.6,2.4Q333.55,179.32,335.66,180.64Z" id="elf3xzli753q8" class="animable" style="transform-origin: 334.335px 178.08px;"></path><path d="M339.91,183.13q2,1.11,4.07,2.06a3.68,3.68,0,0,0,1.29-2.42c-1.34-.66-2.63-1.41-3.81-2.07l-.17-.1A6.17,6.17,0,0,1,339.91,183.13Z" id="elxkgl8cffe6" class="animable" style="transform-origin: 342.59px 182.895px;"></path><path d="M353.4,186.89a4.73,4.73,0,0,0,.49-.35,10,10,0,0,0-1.73-2.82c-.18.57-.72.9-1.9.75l-.35-.07a3.19,3.19,0,0,1-1,2.76A5.8,5.8,0,0,0,353.4,186.89Z" id="elby942repkyw" class="animable" style="transform-origin: 351.4px 185.604px;"></path><path d="M354,179.21c-.13-.32-.26-.62-.38-.9a1.42,1.42,0,0,0-2.59,1.17c.06.14.12.29.19.44A4.15,4.15,0,0,1,354,179.21Z" id="el2t6w8waqfra" class="animable" style="transform-origin: 352.452px 178.697px;"></path></g></g><path d="M255.75,192.86c.83-1,.77-3.88.71-5.18-.25-5.5-7.85-2.58-7.85-2.58l-3.73.05a2.77,2.77,0,0,0-2.54,2.53l-.52,3.63a2.89,2.89,0,0,0,2.17,3.4l3.21.48a5.72,5.72,0,0,0,2.78-.27S254.79,194.05,255.75,192.86Z" style="fill: rgb(32, 27, 44); transform-origin: 249.126px 189.79px;" id="elsj0zy2l8x6h" class="animable"></path><g id="elscqfnddfr7f"><path d="M255.75,192.86c.83-1,.77-3.88.71-5.18-.25-5.5-7.85-2.58-7.85-2.58l-3.73.05a2.77,2.77,0,0,0-2.54,2.53l-.52,3.63a2.89,2.89,0,0,0,2.17,3.4l3.21.48a5.72,5.72,0,0,0,2.78-.27S254.79,194.05,255.75,192.86Z" style="fill: rgb(255, 255, 255); opacity: 0.3; transform-origin: 249.126px 189.79px;" class="animable"></path></g><path d="M369,173.71c-.88-1-3.72-1.33-5-1.46-5.47-.57-3.71,7.38-3.71,7.38l-.5,3.69a2.78,2.78,0,0,0,2.13,2.9l3.51,1.05a2.89,2.89,0,0,0,3.68-1.64l1-3.11a5.85,5.85,0,0,0,.14-2.79S370,174.85,369,173.71Z" style="fill: rgb(32, 27, 44); transform-origin: 365.07px 179.834px;" id="elquo3r8ccuel" class="animable"></path><g id="el8br0m322ue7"><path d="M369,173.71c-.88-1-3.72-1.33-5-1.46-5.47-.57-3.71,7.38-3.71,7.38l-.5,3.69a2.78,2.78,0,0,0,2.13,2.9l3.51,1.05a2.89,2.89,0,0,0,3.68-1.64l1-3.11a5.85,5.85,0,0,0,.14-2.79S370,174.85,369,173.71Z" style="fill: rgb(255, 255, 255); opacity: 0.3; transform-origin: 365.07px 179.834px;" class="animable"></path></g><path d="M310.31,116.61a5.12,5.12,0,1,1-5.62-8.56l1.33-.87a5.12,5.12,0,1,1,5.62,8.55Z" style="fill: rgb(38, 50, 56); transform-origin: 308.251px 111.836px;" id="el2pc9sxvilvo" class="animable"></path><g id="el7hpxa3gabi"><path d="M310.31,116.61a5.12,5.12,0,1,1-5.62-8.56l1.33-.87a5.12,5.12,0,1,1,5.62,8.55Z" style="fill: rgb(255, 255, 255); opacity: 0.3; transform-origin: 308.251px 111.836px;" class="animable"></path></g><g id="elki8ughvmt0p"><path d="M304.55,114.26a5.12,5.12,0,1,0,1.47-7.08A5.11,5.11,0,0,0,304.55,114.26Z" style="fill: rgb(255, 255, 255); opacity: 0.3; transform-origin: 308.833px 111.457px;" class="animable"></path></g><polygon points="302.63 133.83 302.03 133.25 312.09 122.61 308.98 111.27 309.79 111.05 313.02 122.85 302.63 133.83" style="fill: rgb(38, 50, 56); transform-origin: 307.525px 122.44px;" id="elpd5w0dgtrc" class="animable"></polygon><g id="eltjmh4fvoeu"><g style="opacity: 0.4; transform-origin: 307.525px 122.44px;" class="animable"><polygon points="302.63 133.83 302.03 133.25 312.09 122.61 308.98 111.27 309.79 111.05 313.02 122.85 302.63 133.83" style="fill: rgb(255, 255, 255); transform-origin: 307.525px 122.44px;" id="elj27gmi8p5jq" class="animable"></polygon></g></g><path d="M306.11,113.24a3.25,3.25,0,1,0,.93-4.5A3.25,3.25,0,0,0,306.11,113.24Z" style="fill: rgb(32, 27, 44); transform-origin: 308.826px 111.455px;" id="ellf7z2ryis5a" class="animable"></path><path d="M306.67,112.94a3.25,3.25,0,1,0,.93-4.5A3.24,3.24,0,0,0,306.67,112.94Z" style="fill: rgb(32, 27, 44); transform-origin: 309.384px 111.155px;" id="eld1e8kxhgqv" class="animable"></path><g id="elenciz2xnc0i"><path d="M306.67,112.94a3.25,3.25,0,1,0,.93-4.5A3.24,3.24,0,0,0,306.67,112.94Z" style="fill: rgb(255, 255, 255); opacity: 0.5; transform-origin: 309.384px 111.155px;" class="animable"></path></g><path d="M311.25,123.56a1.29,1.29,0,1,0,.37-1.79A1.29,1.29,0,0,0,311.25,123.56Z" style="fill: rgb(32, 27, 44); transform-origin: 312.327px 122.849px;" id="elzmz44aq2hi" class="animable"></path><path d="M311.47,123.44a1.3,1.3,0,1,0,.38-1.79A1.29,1.29,0,0,0,311.47,123.44Z" style="fill: rgb(32, 27, 44); transform-origin: 312.561px 122.737px;" id="eli2h2u07qbw" class="animable"></path><g id="elxtfro9rrmw"><path d="M311.47,123.44a1.3,1.3,0,1,0,.38-1.79A1.29,1.29,0,0,0,311.47,123.44Z" style="fill: rgb(255, 255, 255); opacity: 0.3; transform-origin: 312.561px 122.737px;" class="animable"></path></g><g id="elon5tkaqyu38"><rect x="295.3" y="133.77" width="8.3" height="2.63" rx="1.3" style="fill: rgb(32, 27, 44); transform-origin: 299.45px 135.085px; transform: rotate(-28.25deg);" class="animable"></rect></g><g id="elexcbw23mc5n"><path d="M295.87,134.17h5.7a1.3,1.3,0,0,1,1.3,1.3v0a1.3,1.3,0,0,1-1.3,1.3h-5.71a1.29,1.29,0,0,1-1.29-1.29v0a1.3,1.3,0,0,1,1.3-1.3Z" style="fill: rgb(32, 27, 44); transform-origin: 298.72px 135.47px; transform: rotate(-28.25deg);" class="animable"></path></g><g id="el9ezxfg9zpu7"><path d="M295.87,134.17h5.7a1.3,1.3,0,0,1,1.3,1.3v0a1.3,1.3,0,0,1-1.3,1.3h-5.71a1.29,1.29,0,0,1-1.29-1.29v0a1.3,1.3,0,0,1,1.3-1.3Z" style="fill: rgb(255, 255, 255); opacity: 0.3; transform-origin: 298.72px 135.47px; transform: rotate(-28.25deg);" class="animable"></path></g></g><g id="freepik--character-1--inject-358" class="animable" style="transform-origin: 141.384px 261.025px;"><path d="M81.62,238.83a5.62,5.62,0,0,1-6-5.22l-3.88-56a5.62,5.62,0,0,1,5.21-6l51.24-3.55a5.62,5.62,0,0,1,6,5.22l3.88,56a5.62,5.62,0,0,1-5.22,6v.05a5.61,5.61,0,0,1,6,5.21L140,257.7a5.62,5.62,0,0,1-5.22,6l-51.23,3.54a5.62,5.62,0,0,1-6-5.21l-1.18-17.16a5.61,5.61,0,0,1,5.22-6Z" style="fill: rgb(38, 50, 56); transform-origin: 105.87px 217.65px;" id="el0kt5uqd7y2ud" class="animable"></path><g id="elqxa0ezk7fj9"><path d="M81.62,238.83a5.62,5.62,0,0,1-6-5.22l-3.88-56a5.62,5.62,0,0,1,5.21-6l51.24-3.55a5.62,5.62,0,0,1,6,5.22l3.88,56a5.62,5.62,0,0,1-5.22,6v.05a5.61,5.61,0,0,1,6,5.21L140,257.7a5.62,5.62,0,0,1-5.22,6l-51.23,3.54a5.62,5.62,0,0,1-6-5.21l-1.18-17.16a5.61,5.61,0,0,1,5.22-6Z" style="fill: rgb(255, 255, 255); opacity: 0.3; transform-origin: 105.87px 217.65px;" class="animable"></path></g><path d="M81.62,238.83a5.62,5.62,0,0,1-6-5.22l-3.88-56a5.62,5.62,0,0,1,5.21-6l17.82-1.23a5.61,5.61,0,0,1,6,5.22l3.88,56a5.62,5.62,0,0,1-5.22,6v0a5.62,5.62,0,0,1,6,5.22L106.62,260a5.62,5.62,0,0,1-5.22,6l-17.81,1.23a5.62,5.62,0,0,1-6-5.21l-1.18-17.16a5.61,5.61,0,0,1,5.22-6Z" style="fill: rgb(38, 50, 56); transform-origin: 89.18px 218.805px;" id="elcye44aigvtv" class="animable"></path><g id="elh51d9gn985v"><path d="M81.62,238.83a5.62,5.62,0,0,1-6-5.22l-3.88-56a5.62,5.62,0,0,1,5.21-6l17.82-1.23a5.61,5.61,0,0,1,6,5.22l3.88,56a5.62,5.62,0,0,1-5.22,6v0a5.62,5.62,0,0,1,6,5.22L106.62,260a5.62,5.62,0,0,1-5.22,6l-17.81,1.23a5.62,5.62,0,0,1-6-5.21l-1.18-17.16a5.61,5.61,0,0,1,5.22-6Z" style="fill: rgb(255, 255, 255); opacity: 0.6; transform-origin: 89.18px 218.805px;" class="animable"></path></g><path d="M138.66,143.61h7.07c1.23,0,2.24,1.34,2.24,3s-1,3-2.23,3h-7.07c-1.23,0-2.23-1.34-2.24-3S137.43,143.61,138.66,143.61Z" style="fill: rgb(38, 50, 56); transform-origin: 142.2px 146.61px;" id="el0afxp1b005r" class="animable"></path><path d="M143.5,146.61c0,1.67,1,3,2.24,3s2.23-1.35,2.23-3-1-3-2.24-3S143.5,145,143.5,146.61Z" style="fill: rgb(32, 27, 44); transform-origin: 145.735px 146.61px;" id="el6p27fjzz3ex" class="animable"></path><g id="el6lvwq7ess98"><path d="M143.5,146.61c0,1.67,1,3,2.24,3s2.23-1.35,2.23-3-1-3-2.24-3S143.5,145,143.5,146.61Z" style="fill: rgb(255, 255, 255); opacity: 0.4; transform-origin: 145.735px 146.61px;" class="animable"></path></g><path d="M143.64,146.61c0,1.33.8,2.41,1.79,2.41s1.78-1.08,1.78-2.41-.81-2.41-1.79-2.41S143.63,145.28,143.64,146.61Z" style="fill: rgb(32, 27, 44); transform-origin: 145.425px 146.61px;" id="el2gxkt43tg42" class="animable"></path><g id="el2kw6f5gwb6y"><path d="M144.89,145.4c0,.39.24.71.53.71a.65.65,0,0,0,.53-.72c0-.39-.24-.71-.53-.71S144.89,145,144.89,145.4Z" style="fill: rgb(255, 255, 255); opacity: 0.5; transform-origin: 145.422px 145.395px;" class="animable"></path></g><g id="elfvibvpz9vbm"><path d="M144.9,147.48c0,.4.23.71.52.71s.53-.32.53-.71-.24-.71-.53-.71S144.9,147.09,144.9,147.48Z" style="opacity: 0.2; transform-origin: 145.425px 147.48px;" class="animable"></path></g><path d="M142.79,180l-26.38,0a7.8,7.8,0,0,0-1.69-2.88,20.16,20.16,0,1,1,29.72,0A7.58,7.58,0,0,0,142.79,180Z" style="fill: rgb(32, 27, 44); transform-origin: 129.58px 161.668px;" id="eldgbosrcd2go" class="animable"></path><path d="M126.08,168.7c-.46,4.69-1.22,10.14-4.43,12.86a10.12,10.12,0,0,0,9.12,6.2c5,.17,4.1-3.82,3.2-5.92-2.22-2.35-1.29-5-.82-6.92Z" style="fill: rgb(255, 181, 115); transform-origin: 128.162px 178.233px;" id="elrms1vpi286" class="animable"></path><g id="elncy3onhu5ka"><path d="M127.55,171c0-.3,0-.6.09-.89l5.5,4.85a11.41,11.41,0,0,0-.56,4C129.88,177.21,127.33,173.8,127.55,171Z" style="opacity: 0.2; transform-origin: 130.338px 174.535px;" class="animable"></path></g><path d="M124.08,161.93c1,6.17,1.29,9.83,4.75,12.73,5.2,4.35,12.57.79,13.42-5.54.77-5.71-1-14.85-7.35-16.75A8.45,8.45,0,0,0,124.08,161.93Z" style="fill: rgb(255, 181, 115); transform-origin: 133.183px 164.285px;" id="elyzx3dpcf1zo" class="animable"></path><path d="M122.61,168.42a6,6,0,0,0,3.8,2.51c2.05.39,2.88-1.48,2.15-3.32-.66-1.65-2.52-3.85-4.5-3.41A2.66,2.66,0,0,0,122.61,168.42Z" style="fill: rgb(255, 139, 123); transform-origin: 125.433px 167.563px;" id="el4uwiyiab78l" class="animable"></path><path d="M134,163c.05.5.36.89.69.85s.55-.46.5-1-.36-.89-.69-.86S134,162.48,134,163Z" style="fill: rgb(38, 50, 56); transform-origin: 134.599px 162.921px;" id="eliz3hdh5tyej" class="animable"></path><path d="M140.36,162.59c0,.51.36.89.69.86s.55-.46.5-1-.36-.89-.69-.86S140.3,162.09,140.36,162.59Z" style="fill: rgb(38, 50, 56); transform-origin: 140.954px 162.52px;" id="elpao4dcbgxg" class="animable"></path><path d="M138.54,163.27a18.17,18.17,0,0,0,3.1,3.92,2.89,2.89,0,0,1-2.32.82Z" style="fill: rgb(237, 137, 62); transform-origin: 140.09px 165.647px;" id="elf2wd1ljq955" class="animable"></path><path d="M132.77,160.15a.39.39,0,0,1-.14-.08.3.3,0,0,1,0-.42,2.93,2.93,0,0,1,2.53-1,.31.31,0,0,1,.25.34.29.29,0,0,1-.34.25h0a2.33,2.33,0,0,0-2,.8A.3.3,0,0,1,132.77,160.15Z" style="fill: rgb(38, 50, 56); transform-origin: 133.978px 159.395px;" id="el75846cvhcq8" class="animable"></path><path d="M142.14,159.62a.32.32,0,0,1-.28-.07,2.39,2.39,0,0,0-2.07-.62.29.29,0,0,1-.36-.21.29.29,0,0,1,.2-.36,3,3,0,0,1,2.63.74.31.31,0,0,1,0,.43A.42.42,0,0,1,142.14,159.62Z" style="fill: rgb(38, 50, 56); transform-origin: 140.883px 158.964px;" id="elfj7q9hcu96g" class="animable"></path><path d="M139.69,169a26.11,26.11,0,0,0-4.93,0,3.08,3.08,0,0,0,3.29,1.81A1.6,1.6,0,0,0,139.69,169Z" style="fill: rgb(38, 50, 56); transform-origin: 137.232px 169.865px;" id="el94qmr0iwcc" class="animable"></path><path d="M137.1,170a3.44,3.44,0,0,1,2.07.42,1.81,1.81,0,0,1-1.12.4,3.39,3.39,0,0,1-2.07-.42A1.87,1.87,0,0,1,137.1,170Z" style="fill: rgb(255, 86, 82); transform-origin: 137.575px 170.411px;" id="el8triwc6ym7y" class="animable"></path><path d="M139.53,169c-.08.24-.15.48-.51.58a18.61,18.61,0,0,1-3.22-.09,1.06,1.06,0,0,1-.88-.49A28.94,28.94,0,0,1,139.53,169Z" style="fill: rgb(255, 255, 255); transform-origin: 137.225px 169.26px;" id="elsqh1nppuff" class="animable"></path><path d="M140.61,153.84a1.38,1.38,0,0,1-1.43,2c-3-.41-8.56-.71-9.12,2.48-.76,4.4,3,13.39-3.46,13.56-3,.08-4.72-2.85-5.71-6.72-1.15-4.55-.94-10.36,4.46-13.69S138.56,149.93,140.61,153.84Z" style="fill: rgb(38, 50, 56); transform-origin: 130.545px 160.803px;" id="els6zm7dll4ne" class="animable"></path><path d="M132.94,177s-3.52-.21-7.89-4c0,0-1.16,6.55-4.08,8.1,0,0,3.08,8.54,10.77,7.24s2.47-7.09,2.47-7.09A4.42,4.42,0,0,1,132.94,177Z" style="fill: rgb(38, 50, 56); transform-origin: 128.455px 180.737px;" id="elfwplv89khju" class="animable"></path><g id="elwsh700nzhnp"><path d="M132.94,177s-3.52-.21-7.89-4c0,0-1.16,6.55-4.08,8.1,0,0,3.08,8.54,10.77,7.24s2.47-7.09,2.47-7.09A4.42,4.42,0,0,1,132.94,177Z" style="fill: rgb(255, 255, 255); opacity: 0.5; transform-origin: 128.455px 180.737px;" class="animable"></path></g><path d="M133,177.7c-3-.22-6-2.26-8.22-4.15-.65-.55.1-1.64.75-1.09,2.06,1.75,4.75,3.71,7.57,3.92a.66.66,0,0,1-.1,1.32Z" style="fill: rgb(32, 27, 44); transform-origin: 129.121px 175.006px;" id="elcrljk62f0s" class="animable"></path><g id="elb0p6ny768te"><g style="opacity: 0.3; transform-origin: 129.121px 175.006px;" class="animable"><path d="M133,177.7c-3-.22-6-2.26-8.22-4.15-.65-.55.1-1.64.75-1.09,2.06,1.75,4.75,3.71,7.57,3.92a.66.66,0,0,1-.1,1.32Z" style="fill: rgb(255, 255, 255); transform-origin: 129.121px 175.006px;" id="elc5xbs323drt" class="animable"></path></g></g><path d="M121.25,164.45c.29,2.74,1.17,3.75,3.53,3.5s3-1.41,2.74-4.15-1.17-3.75-3.53-3.51S121,161.7,121.25,164.45Z" style="fill: rgb(38, 50, 56); transform-origin: 124.387px 164.121px;" id="el1faczets6e9" class="animable"></path><g id="elue1q3rkhq4"><path d="M121.25,164.45c.29,2.74,1.17,3.75,3.53,3.5s3-1.41,2.74-4.15-1.17-3.75-3.53-3.51S121,161.7,121.25,164.45Z" style="fill: rgb(255, 255, 255); opacity: 0.5; transform-origin: 124.387px 164.121px;" class="animable"></path></g><polygon points="100.54 273.89 96.75 265.01 90.75 265.94 89.74 275.55 100.54 273.89" style="fill: rgb(38, 50, 56); transform-origin: 95.14px 270.28px;" id="el3enmujfndxj" class="animable"></polygon><g id="elho7vxe5cwx8"><polygon points="97.85 267.58 96.75 265.01 90.75 265.94 90.46 268.75 97.85 267.58" style="opacity: 0.6; transform-origin: 94.155px 266.88px;" class="animable"></polygon></g><path d="M119.43,238.7a56.9,56.9,0,0,1,1.38,8.74c.6,6.34,1.24,15.64,8.16,21.77,13.1,11.62,48.43,7.55,55.6,15.68s-1,46.43-1,46.43L202,335.17s14.43-43.58,5.1-59.81c-10.14-17.61-53-24.49-56.49-32.08a40.18,40.18,0,0,1-3.65-14.08Z" style="fill: rgb(32, 27, 44); transform-origin: 164.835px 282.185px;" id="el2ca6ounjr6v" class="animable"></path><g id="elc5mjjc2mz04"><path d="M119.43,238.7a56.9,56.9,0,0,1,1.38,8.74c.6,6.34,1.24,15.64,8.16,21.77,13.1,11.62,48.43,7.55,55.6,15.68s-1,46.43-1,46.43L202,335.17s14.43-43.58,5.1-59.81c-10.14-17.61-53-24.49-56.49-32.08a40.18,40.18,0,0,1-3.65-14.08Z" style="fill: rgb(255, 255, 255); opacity: 0.7; transform-origin: 164.835px 282.185px;" class="animable"></path></g><path d="M184.87,320.72l-7.07,43,.73.08,1.8-.81,1.58,1.19,1.81-.8,1.58,1.18,1.81-.8,1.58,1.18,1.8-.8,1.58,1.19,1.81-.81,1.58,1.19,1.81-.81,1.58,1.19,1.8-.8,1.58,1.18,1,.11s4.64-6.79-7.58-9.87l10-30.94S193.28,324.77,184.87,320.72Z" style="fill: rgb(32, 27, 44); transform-origin: 191.725px 343.65px;" id="elbyxr4nf3194" class="animable"></path><g id="el1dwjydiungs"><path d="M184.87,320.72l-7.07,43,.73.08,1.8-.81,1.58,1.19,1.81-.8,1.58,1.18,1.81-.8,1.58,1.18,1.8-.8,1.58,1.19,1.81-.81,1.58,1.19,1.81-.81,1.58,1.19,1.8-.8,1.58,1.18,1,.11s4.64-6.79-7.58-9.87l10-30.94S193.28,324.77,184.87,320.72Z" style="fill: rgb(255, 255, 255); opacity: 0.5; transform-origin: 191.725px 343.65px;" class="animable"></path></g><path d="M178.53,363.79l-.73-.08,1.14-6.92,3.15,4.41,13.9,1.56,3.43-4.76c7.31,3.36,3.76,8.57,3.76,8.57l-1-.11-1.58-1.18-1.8.8-1.58-1.19-1.81.81-1.58-1.19-1.81.81-1.58-1.19-1.8.8-1.58-1.18-1.81.8-1.58-1.18-1.81.8L180.33,363Z" style="fill: rgb(38, 50, 56); transform-origin: 190.921px 361.68px;" id="elu9d09cj7ji" class="animable"></path><path d="M205.49,326.82a63.76,63.76,0,0,1-21-5.11c-1.24-.57-.45-2.55.8-2a61.87,61.87,0,0,0,20.46,5,1.07,1.07,0,0,1-.24,2.12Z" style="fill: rgb(32, 27, 44); transform-origin: 195.242px 323.223px;" id="eldy62kyukb06" class="animable"></path><g id="el0danz7wigfm6"><g style="opacity: 0.3; transform-origin: 195.242px 323.223px;" class="animable"><path d="M205.49,326.82a63.76,63.76,0,0,1-21-5.11c-1.24-.57-.45-2.55.8-2a61.87,61.87,0,0,0,20.46,5,1.07,1.07,0,0,1-.24,2.12Z" style="fill: rgb(255, 255, 255); transform-origin: 195.242px 323.223px;" id="el4299aazk58l" class="animable"></path></g></g><g id="eldfi0zxn0prj"><path d="M137.65,252.44l-5.55.42L129.28,261c-2.83,8.13,6.26,8.2,6.26,8.2l4.75,5.71c7.94,2.36,17.56,3.28,25.92,4.39C162,268.61,137.65,252.44,137.65,252.44Z" style="opacity: 0.2; transform-origin: 147.472px 265.87px;" class="animable"></path></g><path d="M113.21,236.05a57.25,57.25,0,0,1-2.4,8.52c-2.1,6-2.28,15.17,1.44,23.62,7,16,35.71,29.27,37.88,37.59s-16.39,41.82-16.39,41.82l14.55,10.57s29.57-43.07,25.9-59.59c-4.14-18.61-32.95-34.66-32.93-43s-.57-18.34-.57-18.34Z" style="fill: rgb(32, 27, 44); transform-origin: 141.914px 297.11px;" id="elq8fjhxalsli" class="animable"></path><g id="elruzsxl6mehb"><path d="M113.21,236.05a57.25,57.25,0,0,1-2.4,8.52c-2.1,6-2.28,15.17,1.44,23.62,7,16,35.71,29.27,37.88,37.59s-16.39,41.82-16.39,41.82l14.55,10.57s29.57-43.07,25.9-59.59c-4.14-18.61-32.95-34.66-32.93-43s-.57-18.34-.57-18.34Z" style="fill: rgb(255, 255, 255); opacity: 0.7; transform-origin: 141.914px 297.11px;" class="animable"></path></g><path d="M139.3,335.32l-20.71,38.32.66.32,2-.17,1.11,1.64,2-.18,1.1,1.64,2-.17,1.11,1.64,2-.18,1.11,1.64,2-.17,1.1,1.64,2-.17,1.11,1.63,2-.17,1.11,1.64.86.41s6.6-4.91-4-11.8l19.56-26S145.92,341.89,139.3,335.32Z" style="fill: rgb(32, 27, 44); transform-origin: 138.005px 359.975px;" id="elmko2o82kdmj" class="animable"></path><g id="elq1pkup9rkp"><path d="M139.3,335.32l-20.71,38.32.66.32,2-.17,1.11,1.64,2-.18,1.1,1.64,2-.17,1.11,1.64,2-.18,1.11,1.64,2-.17,1.1,1.64,2-.17,1.11,1.63,2-.17,1.11,1.64.86.41s6.6-4.91-4-11.8l19.56-26S145.92,341.89,139.3,335.32Z" style="fill: rgb(255, 255, 255); opacity: 0.5; transform-origin: 138.005px 359.975px;" class="animable"></path></g><path d="M119.25,374l-.66-.32,3.33-6.16,1.54,5.19,12.63,6,4.8-3.38c5.82,5.56.76,9.32.76,9.32l-.86-.41-1.11-1.64-2,.17-1.11-1.63-2,.17-1.1-1.64-2,.17-1.11-1.64-2,.18-1.11-1.64-2,.17-1.1-1.64-2,.18-1.11-1.64Z" style="fill: rgb(38, 50, 56); transform-origin: 131.14px 376.085px;" id="elz9bq6q6vhii" class="animable"></path><path d="M156.8,347.81a63.79,63.79,0,0,1-18.2-11.69c-1-.94.4-2.56,1.39-1.61a62.16,62.16,0,0,0,17.73,11.37c1.25.56.33,2.49-.92,1.93Z" style="fill: rgb(32, 27, 44); transform-origin: 148.285px 341.066px;" id="elco44ja8mjwb" class="animable"></path><g id="elbvn7owo3h7n"><g style="opacity: 0.3; transform-origin: 148.285px 341.066px;" class="animable"><path d="M156.8,347.81a63.79,63.79,0,0,1-18.2-11.69c-1-.94.4-2.56,1.39-1.61a62.16,62.16,0,0,0,17.73,11.37c1.25.56.33,2.49-.92,1.93Z" style="fill: rgb(255, 255, 255); transform-origin: 148.285px 341.066px;" id="elyn7zoz2j1qd" class="animable"></path></g></g><path d="M165,202.87c-4.06-6.41-13.79-26.63-21.29-21.6s8.06,28.4,15.59,35.22c5.19,4.71,18.41,9.09,26.09,11.35a5,5,0,0,0,6.41-4.27l.22-2.1a5,5,0,0,0-3.69-5.39C181.91,214.39,169.76,210.34,165,202.87Z" style="fill: rgb(32, 27, 44); transform-origin: 166.885px 204.263px;" id="el0tj5ar7k5sq" class="animable"></path><g id="elgyb9f4ks9pm"><path d="M165,202.87c-4.06-6.41-13.79-26.63-21.29-21.6s8.06,28.4,15.59,35.22c5.19,4.71,18.41,9.09,26.09,11.35a5,5,0,0,0,6.41-4.27l.22-2.1a5,5,0,0,0-3.69-5.39C181.91,214.39,169.76,210.34,165,202.87Z" style="fill: rgb(255, 255, 255); opacity: 0.8; transform-origin: 166.885px 204.263px;" class="animable"></path></g><path d="M163.89,201.89c-4.27.75-8.5,3.17-10.53,7.07-.85,1.62-3.19,0-2.35-1.6,2.34-4.5,7.4-7.4,12.31-8.26,1.81-.31,2.38,2.48.57,2.79Z" style="fill: rgb(32, 27, 44); transform-origin: 157.913px 204.354px;" id="elmhdj2bx6kqk" class="animable"></path><path d="M174.42,211.37c.31-.33-.39.5-.51.64a21.78,21.78,0,0,0-1.49,2.2A16.71,16.71,0,0,0,170,222a1.42,1.42,0,0,1-2.84-.17,20.64,20.64,0,0,1,5.4-12.58c1.23-1.35,3.08.81,1.86,2.15Z" style="fill: rgb(32, 27, 44); transform-origin: 170.989px 216.079px;" id="eletg72inrais" class="animable"></path><g id="el25e44dfab2n"><g style="opacity: 0.3; transform-origin: 157.913px 204.354px;" class="animable"><path d="M163.89,201.89c-4.27.75-8.5,3.17-10.53,7.07-.85,1.62-3.19,0-2.35-1.6,2.34-4.5,7.4-7.4,12.31-8.26,1.81-.31,2.38,2.48.57,2.79Z" style="fill: rgb(255, 255, 255); transform-origin: 157.913px 204.354px;" id="elpjgmd9mveyn" class="animable"></path></g></g><g id="eliht4vkt8p1"><g style="opacity: 0.3; transform-origin: 170.989px 216.079px;" class="animable"><path d="M174.42,211.37c.31-.33-.39.5-.51.64a21.78,21.78,0,0,0-1.49,2.2A16.71,16.71,0,0,0,170,222a1.42,1.42,0,0,1-2.84-.17,20.64,20.64,0,0,1,5.4-12.58c1.23-1.35,3.08.81,1.86,2.15Z" style="fill: rgb(255, 255, 255); transform-origin: 170.989px 216.079px;" id="eljrkovhpxt0b" class="animable"></path></g></g><g id="elfouvjkzfigm"><path d="M142.14,188.85l3.34-5.62,2.24.76s10,13.75,1.41,19.72C145.9,198.68,143.13,193.23,142.14,188.85Z" style="opacity: 0.2; transform-origin: 147.377px 193.47px;" class="animable"></path></g><path d="M202.34,219.44c.92.93,1.14,3.79,1.2,5.09.27,5.5-7.57,3.32-7.57,3.32l-3.71.3a2.78,2.78,0,0,1-2.78-2.28l-.86-3.55a2.89,2.89,0,0,1,1.83-3.6l3.15-.79a5.77,5.77,0,0,1,2.8,0S201.27,218.34,202.34,219.44Z" style="fill: rgb(32, 27, 44); transform-origin: 196.017px 223.017px;" id="elivp00a7hoy" class="animable"></path><g id="el2vqs1kfclka"><path d="M202.34,219.44c.92.93,1.14,3.79,1.2,5.09.27,5.5-7.57,3.32-7.57,3.32l-3.71.3a2.78,2.78,0,0,1-2.78-2.28l-.86-3.55a2.89,2.89,0,0,1,1.83-3.6l3.15-.79a5.77,5.77,0,0,1,2.8,0S201.27,218.34,202.34,219.44Z" style="fill: rgb(255, 255, 255); opacity: 0.3; transform-origin: 196.017px 223.017px;" class="animable"></path></g><path d="M142.63,180.75c-6.9-2.3-17.74-4.23-29.24.3a11,11,0,0,0-6.86,9.8c-.4,10.63-.56,32.84,3.44,56,0,0,26.62,3.62,43.51-3,0,0,4.09-14.66-3.42-32.13l.09-20.43A11,11,0,0,0,142.63,180.75Z" style="fill: rgb(32, 27, 44); transform-origin: 130.464px 213.071px;" id="eli3loohikxu" class="animable"></path><path d="M113.75,180.92c11.36-4.35,22.05-2.45,28.88-.17a9.85,9.85,0,0,1,1,.37c3.38,3.33,5.38,8.49,6.56,13l-.08,17.56c7.51,17.47,3.42,32.13,3.42,32.13-16.89,6.63-43.51,3-43.51,3a262.42,262.42,0,0,1-3.53-37.35C125,188.72,118.27,182.66,113.75,180.92Z" style="fill: rgb(32, 27, 44); transform-origin: 130.566px 213.055px;" id="el667iyifl3h" class="animable"></path><g id="elxhcw5ru1bgc"><path d="M113.75,180.92c11.36-4.35,22.05-2.45,28.88-.17a9.85,9.85,0,0,1,1,.37c3.38,3.33,5.38,8.49,6.56,13l-.08,17.56c7.51,17.47,3.42,32.13,3.42,32.13-16.89,6.63-43.51,3-43.51,3a262.42,262.42,0,0,1-3.53-37.35C125,188.72,118.27,182.66,113.75,180.92Z" style="fill: rgb(255, 255, 255); opacity: 0.7; transform-origin: 130.566px 213.055px;" class="animable"></path></g><g id="elv3wy14cygyr"><path d="M149.41,235l-3.71-.37s-3.21-1.55-5.59-1a5,5,0,0,0-2-2.63l-.54-.36a.39.39,0,0,0-.17-.39l-2.14-1.45a.75.75,0,0,0-.46-.11,61.25,61.25,0,0,1-8-7c1-1.06,0-3.12-1.46-2.32l-.38.23a22.47,22.47,0,0,1-4.7-8.67c-.1-.39-.19-.83-.29-1.3a1.44,1.44,0,0,0-.11-2.81l-.48-.07c-.67-3.41-1.51-7.69-2.67-11.65-1.82,3.77-5,8.48-10.31,14.39,0,1.23.07,2.5.13,3.8a1.18,1.18,0,0,0,.31-.08,55.25,55.25,0,0,0,3.63,8.78,33,33,0,0,0,5.93,7.05c-.07.17-.16.33-.23.49a1.44,1.44,0,0,0,2.38,1.5c2.17,1.92,4.5,3.8,6.74,5.53a1.62,1.62,0,0,0,.62,2l5.79,3.71a1.62,1.62,0,0,0,2-.25,5,5,0,0,0,3.84-1.06,2.49,2.49,0,0,0,.31.81c.86,1.27,5.58,2.54,5.58,2.54a5.78,5.78,0,0,0,2.75.5l3.24-.22a2.89,2.89,0,0,0,2.45-3.2l-.22-3.66A2.76,2.76,0,0,0,149.41,235Z" style="opacity: 0.2; transform-origin: 129.145px 219.961px;" class="animable"></path></g><path d="M126.89,204.31a3.37,3.37,0,1,1-.46-6.73l1-.07a3.37,3.37,0,1,1,.47,6.73Z" style="fill: rgb(38, 50, 56); transform-origin: 127.164px 200.91px;" id="elc3hturuekc" class="animable"></path><g id="elrt4b8610ca"><path d="M124.34,201.11a3.37,3.37,0,1,0,3.13-3.6A3.37,3.37,0,0,0,124.34,201.11Z" style="fill: rgb(255, 255, 255); opacity: 0.5; transform-origin: 127.702px 200.872px;" class="animable"></path></g><path d="M126.12,201a1.59,1.59,0,1,0,1.48-1.69A1.59,1.59,0,0,0,126.12,201Z" style="fill: rgb(32, 27, 44); transform-origin: 127.707px 200.896px;" id="elk98g5986hsd" class="animable"></path><g id="eltvsp82szwj"><path d="M123.69,191.7a3.37,3.37,0,1,0,3.13-3.6A3.37,3.37,0,0,0,123.69,191.7Z" style="fill: rgb(255, 255, 255); opacity: 0.5; transform-origin: 127.052px 191.462px;" class="animable"></path></g><path d="M126.24,194.91a3.38,3.38,0,0,1-.47-6.74l1-.07a3.37,3.37,0,1,1,.47,6.73Z" style="fill: rgb(38, 50, 56); transform-origin: 126.558px 191.502px;" id="elu00ilnoeokn" class="animable"></path><path d="M124.89,191.62a2.17,2.17,0,1,0,2-2.32A2.17,2.17,0,0,0,124.89,191.62Z" style="fill: rgb(32, 27, 44); transform-origin: 127.054px 191.464px;" id="elwqoxb5yg8ub" class="animable"></path><path d="M110.62,245.41c13.87,1.85,29.53,2,42.75-3,1.72-.64,2.66,2,.95,2.69-13.74,5.13-29.87,5-44.27,3.06-1.81-.24-1.24-3,.57-2.79Z" style="fill: rgb(32, 27, 44); transform-origin: 132.084px 245.855px;" id="elcd4iqhm6408" class="animable"></path><g id="elifc82hu53tk"><g style="opacity: 0.3; transform-origin: 132.084px 245.855px;" class="animable"><path d="M110.62,245.41c13.87,1.85,29.53,2,42.75-3,1.72-.64,2.66,2,.95,2.69-13.74,5.13-29.87,5-44.27,3.06-1.81-.24-1.24-3,.57-2.79Z" style="fill: rgb(255, 255, 255); transform-origin: 132.084px 245.855px;" id="ellwyc3j2izgi" class="animable"></path></g></g><path d="M144.36,220.35A97.84,97.84,0,0,1,158.67,235c1.48,2,3.91,5.13,3,7.81-1.08,3.36-5.69,2.61-8.31,2.14a1.42,1.42,0,0,1,.55-2.79c2.13.38,5.87,1.32,4.68-1.86-1.08-2.87-3.65-5.49-5.68-7.71a125.3,125.3,0,0,0-10.47-10.14c-1.39-1.19.49-3.33,1.88-2.13Z" style="fill: rgb(32, 27, 44); transform-origin: 151.91px 232.667px;" id="eltpxp44x6c3g" class="animable"></path><g id="elnnaaivgz3z"><g style="opacity: 0.3; transform-origin: 153.922px 234.33px;" class="animable"><path d="M151.57,227a4,4,0,0,1-2.07,2q-1.71-1.72-3.5-3.38a4.37,4.37,0,0,0,2-2.1Q149.8,225.24,151.57,227Z" id="ely7gc5o2uknk" class="animable" style="transform-origin: 148.785px 226.26px;"></path><path d="M155,230.56q1.53,1.69,2.94,3.5a3.72,3.72,0,0,1-2.07,1.8c-1-1.15-2-2.24-2.89-3.24l-.13-.13A6.32,6.32,0,0,0,155,230.56Z" id="ellakww4pzf1" class="animable" style="transform-origin: 155.395px 233.21px;"></path><path d="M161.71,242.84a3,3,0,0,1-.23.55,9.64,9.64,0,0,1-3.14-1c.51-.3.71-.9.29-2,0-.11-.1-.21-.14-.32a3.15,3.15,0,0,0,2.46-1.57A5.81,5.81,0,0,1,161.71,242.84Z" id="elh33aipc4t5o" class="animable" style="transform-origin: 160.092px 240.945px;"></path><path d="M154.36,245.14l-1-.16a1.42,1.42,0,0,1,.55-2.79l.47.09A4.13,4.13,0,0,0,154.36,245.14Z" id="el34iq2frqbon" class="animable" style="transform-origin: 153.297px 243.652px;"></path></g></g><path d="M127.72,211.86l-.18-2.5a2.4,2.4,0,0,1,2.23-2.56l6.9-.48a2.4,2.4,0,0,1,2.56,2.23l.17,2.51,1.31-.1a2.4,2.4,0,0,1,2.56,2.23l.58,8.44a2.89,2.89,0,0,1-2.68,3.08l-13.32.93a2.91,2.91,0,0,1-3.09-2.69l-.58-8.44a2.4,2.4,0,0,1,2.23-2.55Z" style="fill: rgb(38, 50, 56); transform-origin: 134.016px 215.98px;" id="ela8l076zgzvq" class="animable"></path><path d="M131.27,211.62l-.18-2.51a2.4,2.4,0,0,1,2.23-2.55l6.9-.48a2.4,2.4,0,0,1,2.56,2.22l.18,2.51,1.3-.09a2.39,2.39,0,0,1,2.56,2.22l.59,8.44a2.9,2.9,0,0,1-2.69,3.09l-13.32.92a2.89,2.89,0,0,1-3.08-2.69l-.59-8.43a2.4,2.4,0,0,1,2.23-2.56Z" style="fill: rgb(38, 50, 56); transform-origin: 137.57px 215.735px;" id="elpuamf5il2x" class="animable"></path><g id="elo0sld0e71u"><path d="M131.27,211.62l-.18-2.51a2.4,2.4,0,0,1,2.23-2.55l6.9-.48a2.4,2.4,0,0,1,2.56,2.22l.18,2.51,1.3-.09a2.39,2.39,0,0,1,2.56,2.22l.59,8.44a2.9,2.9,0,0,1-2.69,3.09l-13.32.92a2.89,2.89,0,0,1-3.08-2.69l-.59-8.43a2.4,2.4,0,0,1,2.23-2.56Z" style="fill: rgb(255, 255, 255); opacity: 0.5; transform-origin: 137.57px 215.735px;" class="animable"></path></g><path d="M132.06,223.33l12.33-.86a.71.71,0,0,0,.66-.76h0a.7.7,0,0,0-.76-.66l-12.33.86a.7.7,0,0,0-.66.76h0A.72.72,0,0,0,132.06,223.33Z" style="fill: rgb(32, 27, 44); transform-origin: 138.175px 222.189px;" id="el0v5t65avle8h" class="animable"></path><path d="M143.31,217.76a2.28,2.28,0,0,1-.32-4.55l.71-.05a2.28,2.28,0,0,1,.32,4.55Z" style="fill: rgb(32, 27, 44); transform-origin: 143.505px 215.46px;" id="elzf98joni7jf" class="animable"></path><g id="el3v8ybnhdf0p"><path d="M141.58,215.59a2.28,2.28,0,1,0,2.12-2.43A2.28,2.28,0,0,0,141.58,215.59Z" style="fill: rgb(255, 255, 255); opacity: 0.5; transform-origin: 143.855px 215.435px;" class="animable"></path></g><path d="M136.89,218.2a2.28,2.28,0,1,1-.32-4.55l.71-.05a2.28,2.28,0,0,1,.32,4.55Z" style="fill: rgb(32, 27, 44); transform-origin: 137.084px 215.9px;" id="elfxlvrsvsmh4" class="animable"></path><g id="elm5uxocnwh4e"><path d="M135.16,216a2.28,2.28,0,1,0,2.12-2.44A2.28,2.28,0,0,0,135.16,216Z" style="fill: rgb(255, 255, 255); opacity: 0.5; transform-origin: 137.434px 215.835px;" class="animable"></path></g><path d="M129.3,226.63A97,97,0,0,1,117,243.06c-1.71,1.77-4.45,4.66-7.23,4.22-3.49-.54-3.48-5.21-3.42-7.87a1.42,1.42,0,0,1,2.84.1c0,2.17-.38,6,2.57,4.34,2.67-1.51,4.85-4.47,6.73-6.82a125.16,125.16,0,0,0,8.37-11.93,1.42,1.42,0,0,1,2.4,1.53Z" style="fill: rgb(32, 27, 44); transform-origin: 117.91px 235.883px;" id="elew2w71y0skh" class="animable"></path><g id="elecpr0fay5dl"><g style="opacity: 0.3; transform-origin: 116.54px 238.181px;" class="animable"><path d="M123.87,234.79a4,4,0,0,1-2.34-1.72q1.44-2,2.79-4a4.31,4.31,0,0,0,2.38,1.62C125.79,232.08,124.85,233.45,123.87,234.79Z" id="elocly3bsshb" class="animable" style="transform-origin: 124.115px 231.93px;"></path><path d="M120.88,238.7q-1.44,1.78-3,3.45a3.66,3.66,0,0,1-2.11-1.76c1-1.12,1.9-2.3,2.75-3.36a1.34,1.34,0,0,1,.11-.14A6.29,6.29,0,0,0,120.88,238.7Z" id="eld1mwedc6dg9" class="animable" style="transform-origin: 118.325px 239.52px;"></path><path d="M109.81,247.28a3.4,3.4,0,0,1-.59-.14,10.08,10.08,0,0,1,.54-3.26c.38.46,1,.56,2,0l.3-.19a3.17,3.17,0,0,0,1.93,2.19A5.83,5.83,0,0,1,109.81,247.28Z" id="elo4d36kaiv3" class="animable" style="transform-origin: 111.605px 245.491px;"></path><path d="M106.38,240.38c0-.34,0-.67,0-1a1.42,1.42,0,0,1,2.84.1c0,.16,0,.32,0,.48A4.2,4.2,0,0,0,106.38,240.38Z" id="elpcx5htaoy8g" class="animable" style="transform-origin: 107.8px 239.195px;"></path></g></g><path d="M122.26,208.73c-1.78-7.36-4.47-29.65-13.2-27.3s-1.51,29.49,3.42,38.37c3.4,6.13,14.5,14.53,21,19.15a5,5,0,0,0,7.44-2l.89-1.92a5,5,0,0,0-1.76-6.28C134.53,225.09,124.34,217.33,122.26,208.73Z" style="fill: rgb(32, 27, 44); transform-origin: 123.625px 210.564px;" id="ellde6jujutft" class="animable"></path><g id="elilwi5axdhoo"><path d="M122.26,208.73c-1.78-7.36-4.47-29.65-13.2-27.3s-1.51,29.49,3.42,38.37c3.4,6.13,14.5,14.53,21,19.15a5,5,0,0,0,7.44-2l.89-1.92a5,5,0,0,0-1.76-6.28C134.53,225.09,124.34,217.33,122.26,208.73Z" style="fill: rgb(255, 255, 255); opacity: 0.8; transform-origin: 123.625px 210.564px;" class="animable"></path></g><path d="M132,232.59l2.91,2.24s1.66-4.05,4.49-6.13a.42.42,0,0,0,0-.69l-2.14-1.44a.72.72,0,0,0-.81,0C135.37,227.3,132.59,229.47,132,232.59Z" style="fill: rgb(32, 27, 44); transform-origin: 135.79px 230.638px;" id="el6ttz61u6mzi" class="animable"></path><path d="M121.5,207.44c-4.28-.67-9.07.27-12.25,3.31-1.32,1.26-3-1-1.71-2.28,3.67-3.5,9.39-4.62,14.32-3.85,1.81.29,1.45,3.11-.36,2.82Z" style="fill: rgb(32, 27, 44); transform-origin: 115.064px 207.754px;" id="elzc9ek921tbb" class="animable"></path><path d="M128.42,219.81c.39-.21-.54.35-.69.45a21.93,21.93,0,0,0-2.13,1.6,16.78,16.78,0,0,0-4.79,6.56,1.42,1.42,0,0,1-2.63-1.08,20.57,20.57,0,0,1,9.17-10.16c1.6-.89,2.65,1.76,1.07,2.63Z" style="fill: rgb(32, 27, 44); transform-origin: 123.638px 223.151px;" id="elyn669v9y5oj" class="animable"></path><path d="M132,232.59l2.91,2.24s1.66-4.05,4.49-6.13a.42.42,0,0,0,0-.69l-2.14-1.44a.72.72,0,0,0-.81,0C135.37,227.3,132.59,229.47,132,232.59Z" style="fill: rgb(32, 27, 44); transform-origin: 135.79px 230.638px;" id="elifdb6dwxpbl" class="animable"></path><path d="M121.5,207.44c-4.28-.67-9.07.27-12.25,3.31-1.32,1.26-3-1-1.71-2.28,3.67-3.5,9.39-4.62,14.32-3.85,1.81.29,1.45,3.11-.36,2.82Z" style="fill: rgb(32, 27, 44); transform-origin: 115.064px 207.754px;" id="el6lqq6pndby" class="animable"></path><path d="M128.42,219.81c.39-.21-.54.35-.69.45a21.93,21.93,0,0,0-2.13,1.6,16.78,16.78,0,0,0-4.79,6.56,1.42,1.42,0,0,1-2.63-1.08,20.57,20.57,0,0,1,9.17-10.16c1.6-.89,2.65,1.76,1.07,2.63Z" style="fill: rgb(32, 27, 44); transform-origin: 123.638px 223.151px;" id="elt8e06lxa5cc" class="animable"></path><g id="el6a8zh5260dj"><g style="opacity: 0.3; transform-origin: 123.329px 219.609px;" class="animable"><path d="M132,232.59l2.91,2.24s1.66-4.05,4.49-6.13a.42.42,0,0,0,0-.69l-2.14-1.44a.72.72,0,0,0-.81,0C135.37,227.3,132.59,229.47,132,232.59Z" style="fill: rgb(255, 255, 255); transform-origin: 135.79px 230.638px;" id="el2oc609zl5r2" class="animable"></path><path d="M121.5,207.44c-4.28-.67-9.07.27-12.25,3.31-1.32,1.26-3-1-1.71-2.28,3.67-3.5,9.39-4.62,14.32-3.85,1.81.29,1.45,3.11-.36,2.82Z" style="fill: rgb(255, 255, 255); transform-origin: 115.064px 207.754px;" id="elwfxvdqxhb9" class="animable"></path><path d="M128.42,219.81c.39-.21-.54.35-.69.45a21.93,21.93,0,0,0-2.13,1.6,16.78,16.78,0,0,0-4.79,6.56,1.42,1.42,0,0,1-2.63-1.08,20.57,20.57,0,0,1,9.17-10.16c1.6-.89,2.65,1.76,1.07,2.63Z" style="fill: rgb(255, 255, 255); transform-origin: 123.638px 223.151px;" id="elet315ai3otw" class="animable"></path></g></g><path d="M105,190.44a2.55,2.55,0,0,1,1.82-1.65c1.68-.21,3.35,2.07,3.74,5.09s-.65,5.66-2.32,5.88c-.94.12-1.87-.57-2.59-1.71A46.65,46.65,0,0,1,105,190.44Z" style="fill: rgb(32, 27, 44); transform-origin: 107.821px 194.275px;" id="elhxeke6ueg7p" class="animable"></path><g id="elieka7cfm5is"><rect x="129.56" y="230.85" width="5.45" height="10.11" rx="1.62" style="fill: rgb(32, 27, 44); transform-origin: 132.285px 235.905px; transform: rotate(122.64deg);" class="animable"></rect></g><g id="el28h8mlhsong"><rect x="129.82" y="231.75" width="4.68" height="8.68" rx="1.62" style="fill: rgb(38, 50, 56); transform-origin: 132.16px 236.09px; transform: rotate(122.64deg);" class="animable"></rect></g><path d="M139.89,239.56c-.74-1.08-.44-3.93-.27-5.23.71-5.46,8-1.91,8-1.91l3.71.36a2.78,2.78,0,0,1,2.33,2.74l.21,3.65a2.89,2.89,0,0,1-2.45,3.21l-3.24.22a5.63,5.63,0,0,1-2.74-.51S140.75,240.82,139.89,239.56Z" style="fill: rgb(32, 27, 44); transform-origin: 146.653px 236.949px;" id="elvy6xyek6xhn" class="animable"></path><g id="elwmc8rwczx8"><path d="M139.89,239.56c-.74-1.08-.44-3.93-.27-5.23.71-5.46,8-1.91,8-1.91l3.71.36a2.78,2.78,0,0,1,2.33,2.74l.21,3.65a2.89,2.89,0,0,1-2.45,3.21l-3.24.22a5.63,5.63,0,0,1-2.74-.51S140.75,240.82,139.89,239.56Z" style="fill: rgb(255, 255, 255); opacity: 0.3; transform-origin: 146.653px 236.949px;" class="animable"></path></g><path d="M167.25,284.68a73.41,73.41,0,0,1-21,17.13c-1.74,1-3.43-1.65-1.67-2.61a71.09,71.09,0,0,0,20.32-16.6c1.29-1.53,3.6.55,2.31,2.08Z" style="fill: rgb(32, 27, 44); transform-origin: 155.712px 292.048px;" id="el73fnf2xzrjp" class="animable"></path><g id="elan46xos8z95"><g style="opacity: 0.3; transform-origin: 155.712px 292.048px;" class="animable"><path d="M167.25,284.68a73.41,73.41,0,0,1-21,17.13c-1.74,1-3.43-1.65-1.67-2.61a71.09,71.09,0,0,0,20.32-16.6c1.29-1.53,3.6.55,2.31,2.08Z" style="fill: rgb(255, 255, 255); transform-origin: 155.712px 292.048px;" id="eln98v7627swj" class="animable"></path></g></g><path d="M171.88,314.29a65.13,65.13,0,0,1-22.2-1.85c-1.78-.43-1.22-3.22.56-2.79a62.8,62.8,0,0,0,21.45,1.81c1.82-.2,2,2.63.19,2.83Z" style="fill: rgb(32, 27, 44); transform-origin: 160.871px 312.076px;" id="el44yycfmy2av" class="animable"></path><g id="el73mtrxe1knn"><g style="opacity: 0.3; transform-origin: 160.871px 312.076px;" class="animable"><path d="M171.88,314.29a65.13,65.13,0,0,1-22.2-1.85c-1.78-.43-1.22-3.22.56-2.79a62.8,62.8,0,0,0,21.45,1.81c1.82-.2,2,2.63.19,2.83Z" style="fill: rgb(255, 255, 255); transform-origin: 160.871px 312.076px;" id="elx8ivy2tumc" class="animable"></path></g></g><path d="M197.89,266a69.45,69.45,0,0,1-16.36,18.64c-1.43,1.14-3.38-.81-1.93-2a67.13,67.13,0,0,0,15.87-18.05,1.39,1.39,0,0,1,2.42,1.38Z" style="fill: rgb(32, 27, 44); transform-origin: 188.581px 274.436px;" id="elciknx7gg2qr" class="animable"></path><g id="ellq8e8zuxmje"><g style="opacity: 0.3; transform-origin: 188.581px 274.436px;" class="animable"><path d="M197.89,266a69.45,69.45,0,0,1-16.36,18.64c-1.43,1.14-3.38-.81-1.93-2a67.13,67.13,0,0,0,15.87-18.05,1.39,1.39,0,0,1,2.42,1.38Z" style="fill: rgb(255, 255, 255); transform-origin: 188.581px 274.436px;" id="elf60m9de6p1i" class="animable"></path></g></g><path d="M210,294.46A67.69,67.69,0,0,1,188.08,297a1.35,1.35,0,1,1,.08-2.7,65.1,65.1,0,0,0,21.2-2.48c1.74-.53,2.4,2.07.66,2.61Z" style="fill: rgb(32, 27, 44); transform-origin: 198.905px 294.414px;" id="elu2nms0kntdp" class="animable"></path><g id="elk8to6jz7d3m"><g style="opacity: 0.3; transform-origin: 198.905px 294.414px;" class="animable"><path d="M210,294.46A67.69,67.69,0,0,1,188.08,297a1.35,1.35,0,1,1,.08-2.7,65.1,65.1,0,0,0,21.2-2.48c1.74-.53,2.4,2.07.66,2.61Z" style="fill: rgb(255, 255, 255); transform-origin: 198.905px 294.414px;" id="el5js7brunvif" class="animable"></path></g></g><path d="M98.72,254.61a6,6,0,1,1-7.31-4.31A6,6,0,0,1,98.72,254.61Z" style="fill: rgb(38, 50, 56); transform-origin: 92.9104px 256.109px;" id="el2tb98lm6ue2" class="animable"></path><g id="el792c08hvv2d"><rect x="89.61" y="252" width="35.51" height="5.9" rx="1.56" style="fill: rgb(32, 27, 44); transform-origin: 107.365px 254.95px; transform: rotate(-4.57deg);" class="animable"></rect></g><g id="el47clvmn9as8"><rect x="118.53" y="243.77" width="35.51" height="5.9" rx="1.56" style="fill: rgb(32, 27, 44); transform-origin: 136.285px 246.72px; transform: rotate(-4.57deg);" class="animable"></rect></g><g id="elknvd323a0k"><rect x="89.61" y="252" width="35.51" height="5.9" rx="1.56" style="opacity: 0.3; transform-origin: 107.365px 254.95px; transform: rotate(-4.57deg);" class="animable"></rect></g><g id="elsw9i19miw8a"><rect x="118.53" y="243.77" width="35.51" height="5.9" rx="1.56" style="opacity: 0.3; transform-origin: 136.285px 246.72px; transform: rotate(-4.57deg);" class="animable"></rect></g><path d="M153.41,230.07a3.33,3.33,0,1,1-4-2.39A3.32,3.32,0,0,1,153.41,230.07Z" style="fill: rgb(38, 50, 56); transform-origin: 150.19px 230.916px;" id="elc23rju2ift9" class="animable"></path><path d="M130.37,143.42a20,20,0,0,1,7.64,1.85h-.65c-11.13,0-20.14,6.88-20.13,15.33s9,15.29,20.17,15.27a25.2,25.2,0,0,0,9.36-1.76,19.87,19.87,0,0,1-2.32,3.08,7.58,7.58,0,0,0-1.65,2.85l-26.38,0a7.8,7.8,0,0,0-1.69-2.88,20.16,20.16,0,0,1,15.65-33.77Z" style="fill: rgb(32, 27, 44); transform-origin: 128.089px 161.707px;" id="el60dv8hnmej9" class="animable"></path><g id="elr8v7wrzr3l"><path d="M130.37,143.42a20,20,0,0,1,7.64,1.85h-.65c-11.13,0-20.14,6.88-20.13,15.33s9,15.29,20.17,15.27a25.2,25.2,0,0,0,9.36-1.76,19.87,19.87,0,0,1-2.32,3.08,7.58,7.58,0,0,0-1.65,2.85l-26.38,0a7.8,7.8,0,0,0-1.69-2.88,20.16,20.16,0,0,1,15.65-33.77Z" style="fill: rgb(255, 255, 255); opacity: 0.7; transform-origin: 128.089px 161.707px;" class="animable"></path></g><path d="M136.81,144.76a19.6,19.6,0,0,1,2.77,1.33q-1.1-.09-2.22-.09c-10.8,0-19.57,6.56-19.56,14.59s8.81,14.56,19.6,14.54a24.78,24.78,0,0,0,9.94-2,19.81,19.81,0,0,1-1.07,1.77,26.4,26.4,0,0,1-8.86,1.52c-11.51,0-20.84-7-20.86-15.79C116.54,152,125.56,145,136.81,144.76Z" style="fill: rgb(32, 27, 44); transform-origin: 131.945px 160.59px;" id="elpma270q1ss" class="animable"></path><g id="elf8jj8plzzvw"><path d="M136.81,144.76a19.6,19.6,0,0,1,2.77,1.33q-1.1-.09-2.22-.09c-10.8,0-19.57,6.56-19.56,14.59s8.81,14.56,19.6,14.54a24.78,24.78,0,0,0,9.94-2,19.81,19.81,0,0,1-1.07,1.77,26.4,26.4,0,0,1-8.86,1.52c-11.51,0-20.84-7-20.86-15.79C116.54,152,125.56,145,136.81,144.76Z" style="opacity: 0.4; transform-origin: 131.945px 160.59px;" class="animable"></path></g><g id="el94mlooc1y2l"><path d="M136.85,151.27a13.88,13.88,0,0,0-3.6-1.6,21.18,21.18,0,0,1,5.15-1,17.33,17.33,0,0,1,3.29,2.61A30.1,30.1,0,0,0,136.85,151.27Z" style="fill: rgb(255, 255, 255); opacity: 0.6; transform-origin: 137.47px 149.975px;" class="animable"></path></g><g id="elrt95cdsqdpm"><path d="M138.46,152.45a29.26,29.26,0,0,1,4.47.24A17,17,0,0,1,144.26,172a20.73,20.73,0,0,1-4.52.5h-.1l.12-.15a13.76,13.76,0,0,0-1.3-19.87Z" style="fill: rgb(255, 255, 255); opacity: 0.6; transform-origin: 142.556px 162.471px;" class="animable"></path></g><g id="elqo93vfo684b"><path d="M116.34,149.52h1a0,0,0,0,1,0,0v7.37a.52.52,0,0,1-.52.52h0a.51.51,0,0,1-.51-.51v-7.37A0,0,0,0,1,116.34,149.52Z" style="fill: rgb(38, 50, 56); transform-origin: 116.825px 153.465px; transform: rotate(179.91deg);" class="animable"></path></g><g id="elfkdq55g3z5"><path d="M116.34,149.52h1a0,0,0,0,1,0,0v7.37a.52.52,0,0,1-.52.52h0a.51.51,0,0,1-.51-.51v-7.37A0,0,0,0,1,116.34,149.52Z" style="fill: rgb(255, 255, 255); opacity: 0.4; transform-origin: 116.825px 153.465px; transform: rotate(179.91deg);" class="animable"></path></g><g id="el5t3quk5pg2v"><path d="M114.18,137.4h1a0,0,0,0,1,0,0v19.49a.52.52,0,0,1-.52.52h0a.51.51,0,0,1-.51-.51V137.4a0,0,0,0,1,0,0Z" style="fill: rgb(38, 50, 56); transform-origin: 114.665px 147.405px; transform: rotate(179.91deg);" class="animable"></path></g><g id="el3wwgtymnu1n"><path d="M114.18,137.4h1a0,0,0,0,1,0,0v19.49a.52.52,0,0,1-.52.52h0a.51.51,0,0,1-.51-.51V137.4a0,0,0,0,1,0,0Z" style="fill: rgb(255, 255, 255); opacity: 0.6; transform-origin: 114.665px 147.405px; transform: rotate(179.91deg);" class="animable"></path></g><path d="M144.11,180.49l-.05-1.24a1.21,1.21,0,0,0-1.34-1.17,157.2,157.2,0,0,1-26.06.33,1.21,1.21,0,0,0-1.19.74l-.14.32A1.21,1.21,0,0,0,116,181c3.5,1.55,15.1,5.81,27.42.62A1.23,1.23,0,0,0,144.11,180.49Z" style="fill: rgb(32, 27, 44); transform-origin: 129.684px 181.096px;" id="eldpr1sms8x3d" class="animable"></path><path d="M116.9,166.58a5.11,5.11,0,1,0,.89-10.19l-1.59-.14a5.12,5.12,0,0,0-.88,10.2Z" style="fill: rgb(38, 50, 56); transform-origin: 116.601px 161.419px;" id="elke4av7ttqh" class="animable"></path><g id="elj3m06zlo8e"><path d="M116.9,166.58a5.11,5.11,0,1,0,.89-10.19l-1.59-.14a5.12,5.12,0,0,0-.88,10.2Z" style="fill: rgb(255, 255, 255); opacity: 0.3; transform-origin: 116.601px 161.419px;" class="animable"></path></g><g id="eldpe4arbxurr"><path d="M120.86,161.79a5.12,5.12,0,1,1-4.66-5.54A5.12,5.12,0,0,1,120.86,161.79Z" style="fill: rgb(255, 255, 255); opacity: 0.3; transform-origin: 115.759px 161.351px;" class="animable"></path></g><polygon points="131.83 178.1 132.09 177.31 118.19 172.72 115.53 161.25 114.72 161.44 117.48 173.36 131.83 178.1" style="fill: rgb(38, 50, 56); transform-origin: 123.405px 169.675px;" id="el9c7v6std3cs" class="animable"></polygon><g id="elo9az8vyatcp"><g style="opacity: 0.4; transform-origin: 123.405px 169.675px;" class="animable"><polygon points="131.83 178.1 132.09 177.31 118.19 172.72 115.53 161.25 114.72 161.44 117.48 173.36 131.83 178.1" style="fill: rgb(255, 255, 255); transform-origin: 123.405px 169.675px;" id="elxvuowzzc6m" class="animable"></polygon></g></g><path d="M119,161.63a3.25,3.25,0,1,1-3-3.52A3.25,3.25,0,0,1,119,161.63Z" style="fill: rgb(32, 27, 44); transform-origin: 115.762px 161.351px;" id="el9kvgxj5xsj5" class="animable"></path><path d="M118.37,161.63a3.25,3.25,0,1,1-3-3.52A3.26,3.26,0,0,1,118.37,161.63Z" style="fill: rgb(32, 27, 44); transform-origin: 115.132px 161.351px;" id="elilx7ol46hzn" class="animable"></path><g id="eligjh13tai"><path d="M118.37,161.63a3.25,3.25,0,1,1-3-3.52A3.26,3.26,0,0,1,118.37,161.63Z" style="fill: rgb(255, 255, 255); opacity: 0.5; transform-origin: 115.132px 161.351px;" class="animable"></path></g><path d="M119.37,173.15a1.3,1.3,0,0,1-1.4,1.18,1.29,1.29,0,1,1,1.4-1.18Z" style="fill: rgb(32, 27, 44); transform-origin: 118.084px 173.045px;" id="el8pbz1wz325j" class="animable"></path><path d="M119.12,173.15a1.29,1.29,0,1,1-1.18-1.4A1.3,1.3,0,0,1,119.12,173.15Z" style="fill: rgb(32, 27, 44); transform-origin: 117.835px 173.036px;" id="el4nyx91pflp9" class="animable"></path><g id="elyxxihu2i33"><path d="M119.12,173.15a1.29,1.29,0,1,1-1.18-1.4A1.3,1.3,0,0,1,119.12,173.15Z" style="fill: rgb(255, 255, 255); opacity: 0.3; transform-origin: 117.835px 173.036px;" class="animable"></path></g><path d="M132.38,179h5.71a1.3,1.3,0,0,0,1.29-1.3v0a1.3,1.3,0,0,0-1.3-1.29h-5.7a1.3,1.3,0,0,0-1.3,1.29v0A1.3,1.3,0,0,0,132.38,179Z" style="fill: rgb(32, 27, 44); transform-origin: 135.23px 177.705px;" id="el4e2bqk4488o" class="animable"></path><path d="M133.21,179h5.71a1.31,1.31,0,0,0,1.3-1.3v0a1.3,1.3,0,0,0-1.3-1.29h-5.71a1.31,1.31,0,0,0-1.3,1.3v0A1.3,1.3,0,0,0,133.21,179Z" style="fill: rgb(32, 27, 44); transform-origin: 136.065px 177.705px;" id="elp681x2p7is8" class="animable"></path><g id="elq7eq0wmc80d"><path d="M133.21,179h5.71a1.31,1.31,0,0,0,1.3-1.3v0a1.3,1.3,0,0,0-1.3-1.29h-5.71a1.31,1.31,0,0,0-1.3,1.3v0A1.3,1.3,0,0,0,133.21,179Z" style="fill: rgb(255, 255, 255); opacity: 0.3; transform-origin: 136.065px 177.705px;" class="animable"></path></g></g><defs>     <filter id="active" height="200%">         <feMorphology in="SourceAlpha" result="DILATED" operator="dilate" radius="2"></feMorphology>                <feFlood flood-color="#32DFEC" flood-opacity="1" result="PINK"></feFlood>        <feComposite in="PINK" in2="DILATED" operator="in" result="OUTLINE"></feComposite>        <feMerge>            <feMergeNode in="OUTLINE"></feMergeNode>            <feMergeNode in="SourceGraphic"></feMergeNode>        </feMerge>    </filter>    <filter id="hover" height="200%">        <feMorphology in="SourceAlpha" result="DILATED" operator="dilate" radius="2"></feMorphology>                <feFlood flood-color="#ff0000" flood-opacity="0.5" result="PINK"></feFlood>        <feComposite in="PINK" in2="DILATED" operator="in" result="OUTLINE"></feComposite>        <feMerge>            <feMergeNode in="OUTLINE"></feMergeNode>            <feMergeNode in="SourceGraphic"></feMergeNode>        </feMerge>            <feColorMatrix type="matrix" values="0   0   0   0   0                0   1   0   0   0                0   0   0   0   0                0   0   0   1   0 "></feColorMatrix>    </filter></defs></svg>